<svg xmlns="http://www.w3.org/2000/svg" xmlns:xlink="http://www.w3.org/1999/xlink" width="2000" zoomAndPan="magnify" viewBox="0 0 1500 1499.999933" height="2000" preserveAspectRatio="xMidYMid meet" version="1.0"><defs><g/><clipPath id="05d9701c23"><rect x="0" width="964" y="0" height="1105"/></clipPath><clipPath id="f24a9585b9"><rect x="0" width="458" y="0" height="55"/></clipPath><clipPath id="33439fecbf"><rect x="0" width="172" y="0" height="41"/></clipPath><clipPath id="34267c4053"><rect x="0" width="819" y="0" height="403"/></clipPath></defs><g transform="matrix(1, 0, 0, 1, 53, 120)"><g clip-path="url(#05d9701c23)"><g fill="#464444" fill-opacity="1"><g transform="translate(77.24915, 803.037396)"><g><path d="M 126.265625 35.890625 C 125.128906 35.984375 124.539062 35.75 124.5 35.1875 C 124.300781 32.894531 126.359375 30.128906 130.671875 26.890625 C 156.335938 4.054688 181.382812 -24.332031 205.8125 -58.28125 C 230.238281 -92.226562 252.570312 -128.867188 272.8125 -168.203125 C 293.050781 -207.535156 309.925781 -247.597656 323.4375 -288.390625 C 336.957031 -329.179688 345.625 -367.832031 349.4375 -404.34375 C 349.945312 -411.851562 350.335938 -419.066406 350.609375 -425.984375 C 350.890625 -432.910156 350.789062 -439.222656 350.3125 -444.921875 C 348.382812 -467.742188 342 -485.59375 331.15625 -498.46875 C 320.3125 -511.34375 304.332031 -516.890625 283.21875 -515.109375 C 258.164062 -512.421875 233.082031 -503.269531 207.96875 -487.65625 C 182.851562 -472.039062 159.25 -452.097656 137.15625 -427.828125 C 115.070312 -403.566406 95.070312 -376.742188 77.15625 -347.359375 C 59.238281 -317.972656 44.679688 -287.875 33.484375 -257.0625 C 22.296875 -226.25 15.578125 -196.957031 13.328125 -169.1875 C 12.753906 -162.226562 12.425781 -155.875 12.34375 -150.125 C 12.257812 -144.375 12.429688 -138.929688 12.859375 -133.796875 C 14.441406 -114.972656 19.394531 -102.175781 27.71875 -95.40625 C 36.050781 -88.644531 46.78125 -85.816406 59.90625 -86.921875 C 77.59375 -88.410156 97.363281 -95.820312 119.21875 -109.15625 C 141.070312 -122.488281 162.546875 -140.382812 183.640625 -162.84375 C 204.734375 -185.3125 223.832031 -210.910156 240.9375 -239.640625 C 258.050781 -268.378906 271.265625 -299.082031 280.578125 -331.75 C 289.890625 -364.425781 293.410156 -397.617188 291.140625 -431.328125 C 290.753906 -435.890625 291.414062 -438.242188 293.125 -438.390625 C 294.84375 -438.535156 297.007812 -436.707031 299.625 -432.90625 C 302.238281 -429.101562 303.738281 -424.921875 304.125 -420.359375 C 306.53125 -391.835938 303.457031 -361.84375 294.90625 -330.375 C 286.363281 -298.914062 273.878906 -268.128906 257.453125 -238.015625 C 241.023438 -207.910156 221.921875 -180.585938 200.140625 -156.046875 C 178.367188 -131.515625 155.640625 -111.5 131.953125 -96 C 108.273438 -80.5 84.738281 -71.765625 61.34375 -69.796875 C 41.375 -68.109375 24.265625 -73.414062 10.015625 -85.71875 C -4.234375 -98.019531 -12.515625 -117.867188 -14.828125 -145.265625 C -15.640625 -154.960938 -15.648438 -165.300781 -14.859375 -176.28125 C -12.609375 -204.0625 -5.1875 -233.5625 7.40625 -264.78125 C 20.007812 -296.007812 36.398438 -326.546875 56.578125 -356.390625 C 76.753906 -386.242188 99.296875 -413.566406 124.203125 -438.359375 C 149.117188 -463.160156 175.273438 -483.46875 202.671875 -499.28125 C 230.078125 -515.09375 257.1875 -524.128906 284 -526.390625 C 316.519531 -529.128906 341.816406 -522.066406 359.890625 -505.203125 C 377.972656 -488.347656 388.265625 -465.085938 390.765625 -435.421875 C 391.242188 -429.710938 391.453125 -423.835938 391.390625 -417.796875 C 391.328125 -411.753906 390.988281 -405.546875 390.375 -399.171875 C 382.976562 -330.179688 362.632812 -263.113281 329.34375 -197.96875 C 296.050781 -132.832031 254.847656 -74.632812 205.734375 -23.375 C 221.878906 -36.226562 241.363281 -55.539062 264.1875 -81.3125 C 287.007812 -107.082031 311.410156 -136.285156 337.390625 -168.921875 C 363.367188 -201.554688 388.703125 -235.003906 413.390625 -269.265625 C 436.566406 -301.085938 461.796875 -334.09375 489.078125 -368.28125 C 516.359375 -402.46875 544.675781 -434.585938 574.03125 -464.640625 C 603.394531 -494.703125 632.484375 -519.421875 661.296875 -538.796875 C 690.117188 -558.171875 717.363281 -568.941406 743.03125 -571.109375 C 754.4375 -572.066406 765.832031 -571.445312 777.21875 -569.25 C 788.613281 -567.050781 798.367188 -562.128906 806.484375 -554.484375 C 814.597656 -546.835938 819.28125 -535.597656 820.53125 -520.765625 C 821.15625 -513.347656 819.53125 -505.304688 815.65625 -496.640625 C 811.789062 -487.984375 805.941406 -482.460938 798.109375 -480.078125 C 803.140625 -488.554688 805.148438 -498.785156 804.140625 -510.765625 C 802.023438 -535.859375 781.851562 -546.789062 743.625 -543.5625 C 718.519531 -541.445312 691.953125 -531.164062 663.921875 -512.71875 C 635.890625 -494.269531 607.570312 -470.625 578.96875 -441.78125 C 550.375 -412.945312 522.929688 -382.34375 496.640625 -349.96875 C 470.359375 -317.59375 446.15625 -286.109375 424.03125 -255.515625 C 400.863281 -223.679688 377.332031 -192.679688 353.4375 -162.515625 C 329.550781 -132.347656 306.5625 -105.128906 284.46875 -80.859375 C 262.382812 -56.585938 242.328125 -37.226562 224.296875 -22.78125 C 206.273438 -8.34375 191.84375 -0.664062 181 0.25 C 169.789062 10.394531 158.578125 18.8125 147.359375 25.5 C 136.148438 32.1875 129.117188 35.648438 126.265625 35.890625 Z M 126.265625 35.890625 "/></g></g></g></g></g><g transform="matrix(1, 0, 0, 1, 586, 947)"><g clip-path="url(#f24a9585b9)"><g fill="#464444" fill-opacity="1"><g transform="translate(3.946155, 43.519681)"><g><path d="M 18.421875 0 L 9.171875 0 L 0.640625 -32.6875 L 7.109375 -32.6875 L 13.84375 -5.5625 L 19.921875 -32.6875 L 27.765625 -32.6875 L 33.84375 -5.53125 L 40.578125 -32.6875 L 47.046875 -32.6875 L 38.46875 0 L 29.265625 0 L 23.828125 -25.328125 Z M 18.421875 0 "/></g></g></g><g fill="#464444" fill-opacity="1"><g transform="translate(51.928994, 43.519681)"><g><path d="M 24.71875 0 L 2.90625 0 L 2.90625 -32.6875 L 24.71875 -32.6875 L 24.71875 -27.15625 L 9.078125 -27.15625 L 9.078125 -19.109375 L 23.09375 -19.109375 L 23.09375 -13.625 L 9.078125 -13.625 L 9.078125 -5.53125 L 24.71875 -5.53125 Z M 24.71875 0 "/></g></g></g><g fill="#464444" fill-opacity="1"><g transform="translate(78.876488, 43.519681)"><g><path d="M 22.921875 0 L 2.90625 0 L 2.90625 -32.6875 L 9.078125 -32.6875 L 9.078125 -5.53125 L 22.921875 -5.53125 Z M 22.921875 0 "/></g></g></g><g fill="#464444" fill-opacity="1"><g transform="translate(102.610837, 43.519681)"><g><path d="M 22.921875 0 L 2.90625 0 L 2.90625 -32.6875 L 9.078125 -32.6875 L 9.078125 -5.53125 L 22.921875 -5.53125 Z M 22.921875 0 "/></g></g></g><g fill="#464444" fill-opacity="1"><g transform="translate(126.345185, 43.519681)"><g><path d="M 9.078125 0 L 2.90625 0 L 2.90625 -32.6875 L 9.859375 -32.6875 L 23.265625 -9.296875 L 23.265625 -32.6875 L 29.4375 -32.6875 L 29.4375 0 L 22.453125 0 L 9.078125 -23.4375 Z M 9.078125 0 "/></g></g></g><g fill="#464444" fill-opacity="1"><g transform="translate(159.033449, 43.519681)"><g><path d="M 24.71875 0 L 2.90625 0 L 2.90625 -32.6875 L 24.71875 -32.6875 L 24.71875 -27.15625 L 9.078125 -27.15625 L 9.078125 -19.109375 L 23.09375 -19.109375 L 23.09375 -13.625 L 9.078125 -13.625 L 9.078125 -5.53125 L 24.71875 -5.53125 Z M 24.71875 0 "/></g></g></g><g fill="#464444" fill-opacity="1"><g transform="translate(185.980944, 43.519681)"><g><path d="M 15.890625 0.59375 C 14.316406 0.59375 12.722656 0.398438 11.109375 0.015625 C 9.503906 -0.367188 8.015625 -0.988281 6.640625 -1.84375 C 5.265625 -2.695312 4.113281 -3.84375 3.1875 -5.28125 C 2.257812 -6.726562 1.695312 -8.507812 1.5 -10.625 L 7.890625 -10.625 C 8.253906 -9.082031 8.847656 -7.875 9.671875 -7 C 10.503906 -6.132812 11.46875 -5.53125 12.5625 -5.1875 C 13.664062 -4.84375 14.789062 -4.671875 15.9375 -4.671875 C 17.625 -4.671875 19.035156 -5.023438 20.171875 -5.734375 C 21.316406 -6.453125 21.890625 -7.597656 21.890625 -9.171875 C 21.890625 -10.304688 21.519531 -11.1875 20.78125 -11.8125 C 20.039062 -12.445312 19.078125 -12.941406 17.890625 -13.296875 C 16.703125 -13.660156 15.410156 -13.984375 14.015625 -14.265625 C 12.671875 -14.578125 11.328125 -14.921875 9.984375 -15.296875 C 8.640625 -15.671875 7.398438 -16.1875 6.265625 -16.84375 C 5.140625 -17.5 4.242188 -18.375 3.578125 -19.46875 C 2.910156 -20.570312 2.578125 -21.976562 2.578125 -23.6875 C 2.578125 -25.800781 3.082031 -27.566406 4.09375 -28.984375 C 5.101562 -30.398438 6.476562 -31.472656 8.21875 -32.203125 C 9.96875 -32.929688 11.941406 -33.296875 14.140625 -33.296875 C 16.253906 -33.296875 18.238281 -32.921875 20.09375 -32.171875 C 21.945312 -31.429688 23.515625 -30.300781 24.796875 -28.78125 C 26.085938 -27.269531 26.90625 -25.332031 27.25 -22.96875 L 20.953125 -22.96875 C 20.546875 -24.707031 19.707031 -25.984375 18.4375 -26.796875 C 17.164062 -27.609375 15.691406 -28.015625 14.015625 -28.015625 C 12.472656 -28.015625 11.203125 -27.691406 10.203125 -27.046875 C 9.203125 -26.410156 8.703125 -25.460938 8.703125 -24.203125 C 8.703125 -23.203125 9.050781 -22.414062 9.75 -21.84375 C 10.445312 -21.28125 11.363281 -20.832031 12.5 -20.5 C 13.644531 -20.175781 14.875 -19.851562 16.1875 -19.53125 C 17.5625 -19.25 18.941406 -18.898438 20.328125 -18.484375 C 21.710938 -18.066406 23 -17.507812 24.1875 -16.8125 C 25.375 -16.113281 26.320312 -15.175781 27.03125 -14 C 27.75 -12.832031 28.109375 -11.320312 28.109375 -9.46875 C 28.109375 -6.382812 27.035156 -3.9375 24.890625 -2.125 C 22.742188 -0.3125 19.742188 0.59375 15.890625 0.59375 Z M 15.890625 0.59375 "/></g></g></g><g fill="#464444" fill-opacity="1"><g transform="translate(216.141585, 43.519681)"><g><path d="M 15.890625 0.59375 C 14.316406 0.59375 12.722656 0.398438 11.109375 0.015625 C 9.503906 -0.367188 8.015625 -0.988281 6.640625 -1.84375 C 5.265625 -2.695312 4.113281 -3.84375 3.1875 -5.28125 C 2.257812 -6.726562 1.695312 -8.507812 1.5 -10.625 L 7.890625 -10.625 C 8.253906 -9.082031 8.847656 -7.875 9.671875 -7 C 10.503906 -6.132812 11.46875 -5.53125 12.5625 -5.1875 C 13.664062 -4.84375 14.789062 -4.671875 15.9375 -4.671875 C 17.625 -4.671875 19.035156 -5.023438 20.171875 -5.734375 C 21.316406 -6.453125 21.890625 -7.597656 21.890625 -9.171875 C 21.890625 -10.304688 21.519531 -11.1875 20.78125 -11.8125 C 20.039062 -12.445312 19.078125 -12.941406 17.890625 -13.296875 C 16.703125 -13.660156 15.410156 -13.984375 14.015625 -14.265625 C 12.671875 -14.578125 11.328125 -14.921875 9.984375 -15.296875 C 8.640625 -15.671875 7.398438 -16.1875 6.265625 -16.84375 C 5.140625 -17.5 4.242188 -18.375 3.578125 -19.46875 C 2.910156 -20.570312 2.578125 -21.976562 2.578125 -23.6875 C 2.578125 -25.800781 3.082031 -27.566406 4.09375 -28.984375 C 5.101562 -30.398438 6.476562 -31.472656 8.21875 -32.203125 C 9.96875 -32.929688 11.941406 -33.296875 14.140625 -33.296875 C 16.253906 -33.296875 18.238281 -32.921875 20.09375 -32.171875 C 21.945312 -31.429688 23.515625 -30.300781 24.796875 -28.78125 C 26.085938 -27.269531 26.90625 -25.332031 27.25 -22.96875 L 20.953125 -22.96875 C 20.546875 -24.707031 19.707031 -25.984375 18.4375 -26.796875 C 17.164062 -27.609375 15.691406 -28.015625 14.015625 -28.015625 C 12.472656 -28.015625 11.203125 -27.691406 10.203125 -27.046875 C 9.203125 -26.410156 8.703125 -25.460938 8.703125 -24.203125 C 8.703125 -23.203125 9.050781 -22.414062 9.75 -21.84375 C 10.445312 -21.28125 11.363281 -20.832031 12.5 -20.5 C 13.644531 -20.175781 14.875 -19.851562 16.1875 -19.53125 C 17.5625 -19.25 18.941406 -18.898438 20.328125 -18.484375 C 21.710938 -18.066406 23 -17.507812 24.1875 -16.8125 C 25.375 -16.113281 26.320312 -15.175781 27.03125 -14 C 27.75 -12.832031 28.109375 -11.320312 28.109375 -9.46875 C 28.109375 -6.382812 27.035156 -3.9375 24.890625 -2.125 C 22.742188 -0.3125 19.742188 0.59375 15.890625 0.59375 Z M 15.890625 0.59375 "/></g></g></g><g fill="#464444" fill-opacity="1"><g transform="translate(246.302227, 43.519681)"><g/></g></g><g fill="#464444" fill-opacity="1"><g transform="translate(258.126529, 43.519681)"><g><path d="M 6.765625 0 L 0.296875 0 L 11.828125 -32.6875 L 18.59375 -32.6875 L 30.125 0 L 23.65625 0 L 21.421875 -6.71875 L 8.953125 -6.71875 Z M 15.203125 -25.96875 L 10.71875 -12.125 L 19.703125 -12.125 Z M 15.203125 -25.96875 "/></g></g></g><g fill="#464444" fill-opacity="1"><g transform="translate(288.886949, 43.519681)"><g><path d="M 9.078125 0 L 2.90625 0 L 2.90625 -32.6875 L 9.859375 -32.6875 L 23.265625 -9.296875 L 23.265625 -32.6875 L 29.4375 -32.6875 L 29.4375 0 L 22.453125 0 L 9.078125 -23.4375 Z M 9.078125 0 "/></g></g></g><g fill="#464444" fill-opacity="1"><g transform="translate(321.575213, 43.519681)"><g><path d="M 12.421875 0 L 2.90625 0 L 2.90625 -32.6875 L 12.421875 -32.6875 C 17.960938 -32.6875 22.195312 -31.269531 25.125 -28.4375 C 28.050781 -25.613281 29.515625 -21.578125 29.515625 -16.328125 C 29.515625 -11.097656 28.039062 -7.066406 25.09375 -4.234375 C 22.15625 -1.410156 17.929688 0 12.421875 0 Z M 9.078125 -27.15625 L 9.078125 -5.53125 L 12.34375 -5.53125 C 14.507812 -5.53125 16.421875 -5.863281 18.078125 -6.53125 C 19.734375 -7.207031 21.023438 -8.335938 21.953125 -9.921875 C 22.878906 -11.503906 23.34375 -13.640625 23.34375 -16.328125 C 23.34375 -18.867188 22.882812 -20.929688 21.96875 -22.515625 C 21.0625 -24.097656 19.785156 -25.265625 18.140625 -26.015625 C 16.503906 -26.773438 14.582031 -27.15625 12.375 -27.15625 Z M 9.078125 -27.15625 "/></g></g></g><g fill="#464444" fill-opacity="1"><g transform="translate(353.106793, 43.519681)"><g/></g></g><g fill="#464444" fill-opacity="1"><g transform="translate(364.931094, 43.519681)"><g><path d="M 15.890625 0.59375 C 14.316406 0.59375 12.722656 0.398438 11.109375 0.015625 C 9.503906 -0.367188 8.015625 -0.988281 6.640625 -1.84375 C 5.265625 -2.695312 4.113281 -3.84375 3.1875 -5.28125 C 2.257812 -6.726562 1.695312 -8.507812 1.5 -10.625 L 7.890625 -10.625 C 8.253906 -9.082031 8.847656 -7.875 9.671875 -7 C 10.503906 -6.132812 11.46875 -5.53125 12.5625 -5.1875 C 13.664062 -4.84375 14.789062 -4.671875 15.9375 -4.671875 C 17.625 -4.671875 19.035156 -5.023438 20.171875 -5.734375 C 21.316406 -6.453125 21.890625 -7.597656 21.890625 -9.171875 C 21.890625 -10.304688 21.519531 -11.1875 20.78125 -11.8125 C 20.039062 -12.445312 19.078125 -12.941406 17.890625 -13.296875 C 16.703125 -13.660156 15.410156 -13.984375 14.015625 -14.265625 C 12.671875 -14.578125 11.328125 -14.921875 9.984375 -15.296875 C 8.640625 -15.671875 7.398438 -16.1875 6.265625 -16.84375 C 5.140625 -17.5 4.242188 -18.375 3.578125 -19.46875 C 2.910156 -20.570312 2.578125 -21.976562 2.578125 -23.6875 C 2.578125 -25.800781 3.082031 -27.566406 4.09375 -28.984375 C 5.101562 -30.398438 6.476562 -31.472656 8.21875 -32.203125 C 9.96875 -32.929688 11.941406 -33.296875 14.140625 -33.296875 C 16.253906 -33.296875 18.238281 -32.921875 20.09375 -32.171875 C 21.945312 -31.429688 23.515625 -30.300781 24.796875 -28.78125 C 26.085938 -27.269531 26.90625 -25.332031 27.25 -22.96875 L 20.953125 -22.96875 C 20.546875 -24.707031 19.707031 -25.984375 18.4375 -26.796875 C 17.164062 -27.609375 15.691406 -28.015625 14.015625 -28.015625 C 12.472656 -28.015625 11.203125 -27.691406 10.203125 -27.046875 C 9.203125 -26.410156 8.703125 -25.460938 8.703125 -24.203125 C 8.703125 -23.203125 9.050781 -22.414062 9.75 -21.84375 C 10.445312 -21.28125 11.363281 -20.832031 12.5 -20.5 C 13.644531 -20.175781 14.875 -19.851562 16.1875 -19.53125 C 17.5625 -19.25 18.941406 -18.898438 20.328125 -18.484375 C 21.710938 -18.066406 23 -17.507812 24.1875 -16.8125 C 25.375 -16.113281 26.320312 -15.175781 27.03125 -14 C 27.75 -12.832031 28.109375 -11.320312 28.109375 -9.46875 C 28.109375 -6.382812 27.035156 -3.9375 24.890625 -2.125 C 22.742188 -0.3125 19.742188 0.59375 15.890625 0.59375 Z M 15.890625 0.59375 "/></g></g></g><g fill="#464444" fill-opacity="1"><g transform="translate(395.091736, 43.519681)"><g><path d="M 9.078125 0 L 2.90625 0 L 2.90625 -32.6875 L 17.015625 -32.6875 C 19.066406 -32.6875 20.867188 -32.347656 22.421875 -31.671875 C 23.984375 -31.003906 25.195312 -29.960938 26.0625 -28.546875 C 26.9375 -27.140625 27.375 -25.304688 27.375 -23.046875 C 27.375 -20.960938 26.9375 -19.171875 26.0625 -17.671875 C 25.195312 -16.171875 23.984375 -15.023438 22.421875 -14.234375 C 20.867188 -13.453125 19.066406 -13.0625 17.015625 -13.0625 L 9.078125 -13.0625 Z M 9.078125 -27.15625 L 9.078125 -18.46875 L 16.15625 -18.46875 C 17.8125 -18.46875 19.070312 -18.835938 19.9375 -19.578125 C 20.8125 -20.316406 21.25 -21.398438 21.25 -22.828125 C 21.25 -24.234375 20.804688 -25.304688 19.921875 -26.046875 C 19.035156 -26.785156 17.78125 -27.15625 16.15625 -27.15625 Z M 9.078125 -27.15625 "/></g></g></g><g fill="#464444" fill-opacity="1"><g transform="translate(423.967075, 43.519681)"><g><path d="M 6.765625 0 L 0.296875 0 L 11.828125 -32.6875 L 18.59375 -32.6875 L 30.125 0 L 23.65625 0 L 21.421875 -6.71875 L 8.953125 -6.71875 Z M 15.203125 -25.96875 L 10.71875 -12.125 L 19.703125 -12.125 Z M 15.203125 -25.96875 "/></g></g></g></g></g><g transform="matrix(1, 0, 0, 1, 730, 1063)"><g clip-path="url(#33439fecbf)"><g fill="#464444" fill-opacity="1"><g transform="translate(1.638682, 32.656534)"><g><path d="M 18.53125 0 L 2.1875 0 L 2.1875 -24.515625 L 18.53125 -24.515625 L 18.53125 -20.375 L 6.8125 -20.375 L 6.8125 -14.328125 L 17.3125 -14.328125 L 17.3125 -10.21875 L 6.8125 -10.21875 L 6.8125 -4.140625 L 18.53125 -4.140625 Z M 18.53125 0 "/></g></g></g><g fill="#464444" fill-opacity="1"><g transform="translate(20.017829, 32.656534)"><g><path d="M 11.921875 0.453125 C 10.742188 0.453125 9.546875 0.304688 8.328125 0.015625 C 7.117188 -0.273438 6 -0.738281 4.96875 -1.375 C 3.945312 -2.019531 3.085938 -2.882812 2.390625 -3.96875 C 1.691406 -5.050781 1.269531 -6.382812 1.125 -7.96875 L 5.90625 -7.96875 C 6.1875 -6.8125 6.632812 -5.90625 7.25 -5.25 C 7.875 -4.59375 8.597656 -4.132812 9.421875 -3.875 C 10.253906 -3.625 11.097656 -3.5 11.953125 -3.5 C 13.210938 -3.5 14.269531 -3.765625 15.125 -4.296875 C 15.988281 -4.835938 16.421875 -5.695312 16.421875 -6.875 C 16.421875 -7.726562 16.140625 -8.390625 15.578125 -8.859375 C 15.023438 -9.335938 14.300781 -9.707031 13.40625 -9.96875 C 12.519531 -10.238281 11.550781 -10.484375 10.5 -10.703125 C 9.5 -10.929688 8.492188 -11.1875 7.484375 -11.46875 C 6.472656 -11.75 5.546875 -12.132812 4.703125 -12.625 C 3.859375 -13.113281 3.179688 -13.769531 2.671875 -14.59375 C 2.171875 -15.425781 1.921875 -16.484375 1.921875 -17.765625 C 1.921875 -19.347656 2.300781 -20.671875 3.0625 -21.734375 C 3.820312 -22.796875 4.851562 -23.597656 6.15625 -24.140625 C 7.46875 -24.691406 8.945312 -24.96875 10.59375 -24.96875 C 12.1875 -24.96875 13.675781 -24.6875 15.0625 -24.125 C 16.457031 -23.570312 17.632812 -22.726562 18.59375 -21.59375 C 19.5625 -20.457031 20.175781 -19 20.4375 -17.21875 L 15.703125 -17.21875 C 15.410156 -18.519531 14.785156 -19.476562 13.828125 -20.09375 C 12.878906 -20.707031 11.769531 -21.015625 10.5 -21.015625 C 9.34375 -21.015625 8.390625 -20.769531 7.640625 -20.28125 C 6.890625 -19.800781 6.515625 -19.09375 6.515625 -18.15625 C 6.515625 -17.40625 6.773438 -16.8125 7.296875 -16.375 C 7.828125 -15.945312 8.519531 -15.609375 9.375 -15.359375 C 10.238281 -15.117188 11.160156 -14.882812 12.140625 -14.65625 C 13.171875 -14.4375 14.203125 -14.171875 15.234375 -13.859375 C 16.273438 -13.546875 17.238281 -13.128906 18.125 -12.609375 C 19.019531 -12.085938 19.734375 -11.382812 20.265625 -10.5 C 20.804688 -9.625 21.078125 -8.488281 21.078125 -7.09375 C 21.078125 -4.78125 20.269531 -2.941406 18.65625 -1.578125 C 17.050781 -0.222656 14.804688 0.453125 11.921875 0.453125 Z M 11.921875 0.453125 "/></g></g></g><g fill="#464444" fill-opacity="1"><g transform="translate(40.806834, 32.656534)"><g><path d="M 12.4375 0 L 7.8125 0 L 7.8125 -20.375 L 0.328125 -20.375 L 0.328125 -24.515625 L 19.890625 -24.515625 L 19.890625 -20.375 L 12.4375 -20.375 Z M 12.4375 0 "/></g></g></g><g fill="#464444" fill-opacity="1"><g transform="translate(59.475166, 32.656534)"><g><path d="M 9.3125 0 L 2.1875 0 L 2.1875 -24.515625 L 9.3125 -24.515625 C 13.46875 -24.515625 16.644531 -23.453125 18.84375 -21.328125 C 21.039062 -19.210938 22.140625 -16.179688 22.140625 -12.234375 C 22.140625 -8.316406 21.035156 -5.296875 18.828125 -3.171875 C 16.617188 -1.054688 13.445312 0 9.3125 0 Z M 6.8125 -20.375 L 6.8125 -4.140625 L 9.25 -4.140625 C 10.875 -4.140625 12.304688 -4.390625 13.546875 -4.890625 C 14.796875 -5.398438 15.769531 -6.25 16.46875 -7.4375 C 17.164062 -8.625 17.515625 -10.222656 17.515625 -12.234375 C 17.515625 -14.140625 17.171875 -15.6875 16.484375 -16.875 C 15.796875 -18.070312 14.832031 -18.953125 13.59375 -19.515625 C 12.363281 -20.085938 10.925781 -20.375 9.28125 -20.375 Z M 6.8125 -20.375 "/></g></g></g><g fill="#464444" fill-opacity="1"><g transform="translate(81.292373, 32.656534)"><g/></g></g><g fill="#464444" fill-opacity="1"><g transform="translate(88.32914, 32.656534)"><g><path d="M 19.3125 0 L 1.765625 0 L 1.765625 -3.5 L 9.484375 -10.25 C 10.929688 -11.53125 12.035156 -12.726562 12.796875 -13.84375 C 13.554688 -14.957031 13.9375 -16.082031 13.9375 -17.21875 C 13.9375 -18.332031 13.640625 -19.238281 13.046875 -19.9375 C 12.460938 -20.632812 11.53125 -20.984375 10.25 -20.984375 C 8.914062 -20.984375 7.878906 -20.570312 7.140625 -19.75 C 6.410156 -18.9375 5.988281 -17.65625 5.875 -15.90625 L 1.609375 -15.90625 C 1.710938 -18.8125 2.507812 -21.039062 4 -22.59375 C 5.488281 -24.144531 7.582031 -24.921875 10.28125 -24.921875 C 11.820312 -24.921875 13.191406 -24.625 14.390625 -24.03125 C 15.585938 -23.445312 16.523438 -22.613281 17.203125 -21.53125 C 17.878906 -20.457031 18.21875 -19.160156 18.21875 -17.640625 C 18.21875 -16.222656 17.910156 -14.894531 17.296875 -13.65625 C 16.691406 -12.414062 15.9375 -11.28125 15.03125 -10.25 C 14.132812 -9.21875 13.257812 -8.316406 12.40625 -7.546875 L 8.609375 -4.140625 L 19.3125 -4.140625 Z M 19.3125 0 "/></g></g></g><g fill="#464444" fill-opacity="1"><g transform="translate(107.575841, 32.656534)"><g><path d="M 10.828125 0.453125 C 8.984375 0.453125 7.382812 0.0195312 6.03125 -0.84375 C 4.6875 -1.71875 3.648438 -3.09375 2.921875 -4.96875 C 2.191406 -6.84375 1.828125 -9.300781 1.828125 -12.34375 C 1.828125 -15.332031 2.1875 -17.753906 2.90625 -19.609375 C 3.625 -21.460938 4.644531 -22.816406 5.96875 -23.671875 C 7.300781 -24.535156 8.878906 -24.96875 10.703125 -24.96875 C 12.566406 -24.96875 14.164062 -24.53125 15.5 -23.65625 C 16.84375 -22.789062 17.875 -21.421875 18.59375 -19.546875 C 19.320312 -17.671875 19.6875 -15.210938 19.6875 -12.171875 C 19.6875 -9.191406 19.328125 -6.769531 18.609375 -4.90625 C 17.898438 -3.050781 16.882812 -1.691406 15.5625 -0.828125 C 14.25 0.0234375 12.671875 0.453125 10.828125 0.453125 Z M 10.734375 -3.6875 C 11.585938 -3.6875 12.335938 -3.9375 12.984375 -4.4375 C 13.640625 -4.945312 14.148438 -5.820312 14.515625 -7.0625 C 14.878906 -8.3125 15.0625 -10.035156 15.0625 -12.234375 C 15.0625 -14.441406 14.875 -16.164062 14.5 -17.40625 C 14.125 -18.65625 13.601562 -19.53125 12.9375 -20.03125 C 12.28125 -20.53125 11.523438 -20.78125 10.671875 -20.78125 C 9.804688 -20.78125 9.054688 -20.523438 8.421875 -20.015625 C 7.796875 -19.503906 7.3125 -18.628906 6.96875 -17.390625 C 6.625 -16.160156 6.453125 -14.453125 6.453125 -12.265625 C 6.453125 -10.066406 6.628906 -8.335938 6.984375 -7.078125 C 7.335938 -5.828125 7.832031 -4.945312 8.46875 -4.4375 C 9.113281 -3.9375 9.867188 -3.6875 10.734375 -3.6875 Z M 10.734375 -3.6875 "/></g></g></g><g fill="#464444" fill-opacity="1"><g transform="translate(127.529406, 32.656534)"><g><path d="M 10.796875 0.453125 C 8.992188 0.453125 7.398438 0.117188 6.015625 -0.546875 C 4.640625 -1.210938 3.554688 -2.160156 2.765625 -3.390625 C 1.972656 -4.617188 1.535156 -6.066406 1.453125 -7.734375 L 6.078125 -7.734375 C 6.242188 -6.390625 6.707031 -5.347656 7.46875 -4.609375 C 8.226562 -3.867188 9.359375 -3.5 10.859375 -3.5 C 12.179688 -3.5 13.203125 -3.847656 13.921875 -4.546875 C 14.640625 -5.242188 15 -6.179688 15 -7.359375 C 15 -8.617188 14.566406 -9.535156 13.703125 -10.109375 C 12.835938 -10.691406 11.644531 -10.984375 10.125 -10.984375 L 8.640625 -10.984375 L 8.640625 -14.75 L 9.953125 -14.75 C 11.003906 -14.75 11.890625 -15.023438 12.609375 -15.578125 C 13.328125 -16.140625 13.6875 -16.929688 13.6875 -17.953125 C 13.6875 -18.878906 13.398438 -19.613281 12.828125 -20.15625 C 12.265625 -20.707031 11.445312 -20.984375 10.375 -20.984375 C 9.363281 -20.984375 8.519531 -20.695312 7.84375 -20.125 C 7.175781 -19.5625 6.753906 -18.644531 6.578125 -17.375 L 2.34375 -17.375 C 2.425781 -18.894531 2.820312 -20.222656 3.53125 -21.359375 C 4.238281 -22.492188 5.1875 -23.367188 6.375 -23.984375 C 7.5625 -24.609375 8.90625 -24.921875 10.40625 -24.921875 C 11.96875 -24.921875 13.328125 -24.628906 14.484375 -24.046875 C 15.640625 -23.472656 16.539062 -22.6875 17.1875 -21.6875 C 17.832031 -20.695312 18.15625 -19.5625 18.15625 -18.28125 C 18.15625 -17.0625 17.828125 -15.988281 17.171875 -15.0625 C 16.515625 -14.144531 15.617188 -13.566406 14.484375 -13.328125 C 16.160156 -13.140625 17.4375 -12.472656 18.3125 -11.328125 C 19.1875 -10.179688 19.625 -8.835938 19.625 -7.296875 C 19.625 -5.773438 19.25 -4.429688 18.5 -3.265625 C 17.75 -2.097656 16.710938 -1.1875 15.390625 -0.53125 C 14.078125 0.125 12.546875 0.453125 10.796875 0.453125 Z M 10.796875 0.453125 "/></g></g></g><g fill="#464444" fill-opacity="1"><g transform="translate(147.22594, 32.656534)"><g><path d="M 10.828125 0.453125 C 8.984375 0.453125 7.382812 0.0195312 6.03125 -0.84375 C 4.6875 -1.71875 3.648438 -3.09375 2.921875 -4.96875 C 2.191406 -6.84375 1.828125 -9.300781 1.828125 -12.34375 C 1.828125 -15.332031 2.1875 -17.753906 2.90625 -19.609375 C 3.625 -21.460938 4.644531 -22.816406 5.96875 -23.671875 C 7.300781 -24.535156 8.878906 -24.96875 10.703125 -24.96875 C 12.566406 -24.96875 14.164062 -24.53125 15.5 -23.65625 C 16.84375 -22.789062 17.875 -21.421875 18.59375 -19.546875 C 19.320312 -17.671875 19.6875 -15.210938 19.6875 -12.171875 C 19.6875 -9.191406 19.328125 -6.769531 18.609375 -4.90625 C 17.898438 -3.050781 16.882812 -1.691406 15.5625 -0.828125 C 14.25 0.0234375 12.671875 0.453125 10.828125 0.453125 Z M 10.734375 -3.6875 C 11.585938 -3.6875 12.335938 -3.9375 12.984375 -4.4375 C 13.640625 -4.945312 14.148438 -5.820312 14.515625 -7.0625 C 14.878906 -8.3125 15.0625 -10.035156 15.0625 -12.234375 C 15.0625 -14.441406 14.875 -16.164062 14.5 -17.40625 C 14.125 -18.65625 13.601562 -19.53125 12.9375 -20.03125 C 12.28125 -20.53125 11.523438 -20.78125 10.671875 -20.78125 C 9.804688 -20.78125 9.054688 -20.523438 8.421875 -20.015625 C 7.796875 -19.503906 7.3125 -18.628906 6.96875 -17.390625 C 6.625 -16.160156 6.453125 -14.453125 6.453125 -12.265625 C 6.453125 -10.066406 6.628906 -8.335938 6.984375 -7.078125 C 7.335938 -5.828125 7.832031 -4.945312 8.46875 -4.4375 C 9.113281 -3.9375 9.867188 -3.6875 10.734375 -3.6875 Z M 10.734375 -3.6875 "/></g></g></g></g></g><g transform="matrix(1, 0, 0, 1, 544, 571)"><g clip-path="url(#34267c4053)"><g fill="#464444" fill-opacity="1"><g transform="translate(3.875627, 321.932457)"><g><path d="M 30.6875 -164.53125 L 20.703125 -164.53125 C 17.640625 -164.53125 15.210938 -165.488281 13.421875 -167.40625 C 11.628906 -169.320312 10.734375 -171.5625 10.734375 -174.125 C 10.734375 -180.769531 14.054688 -184.09375 20.703125 -184.09375 L 39.890625 -184.09375 C 47.816406 -184.09375 51.90625 -180.640625 52.15625 -173.734375 L 52.15625 -19.9375 L 61.75 -19.9375 C 64.8125 -19.9375 67.175781 -18.914062 68.84375 -16.875 C 70.507812 -14.832031 71.34375 -12.53125 71.34375 -9.96875 C 71.34375 -3.320312 68.144531 0 61.75 0 L 21.09375 0 C 18.539062 0 16.300781 -0.957031 14.375 -2.875 C 12.457031 -4.789062 11.5 -7.023438 11.5 -9.578125 C 11.5 -12.140625 12.457031 -14.503906 14.375 -16.671875 C 16.300781 -18.847656 18.539062 -19.9375 21.09375 -19.9375 L 30.6875 -20.328125 Z M 36.4375 -243.546875 C 41.550781 -243.546875 45.832031 -241.882812 49.28125 -238.5625 C 52.738281 -235.238281 54.46875 -231.207031 54.46875 -226.46875 C 54.46875 -221.738281 52.738281 -217.710938 49.28125 -214.390625 C 45.832031 -211.066406 41.613281 -209.40625 36.625 -209.40625 C 31.632812 -209.40625 27.414062 -211.066406 23.96875 -214.390625 C 20.519531 -217.710938 18.796875 -221.738281 18.796875 -226.46875 C 18.796875 -231.207031 20.457031 -235.238281 23.78125 -238.5625 C 27.101562 -241.882812 31.320312 -243.546875 36.4375 -243.546875 Z M 36.4375 -243.546875 "/></g></g></g><g fill="#464444" fill-opacity="1"><g transform="translate(85.932666, 321.932457)"><g><path d="M 75.9375 -24.921875 C 75.9375 -28.253906 76.957031 -30.941406 79 -32.984375 C 81.050781 -35.023438 83.738281 -36.046875 87.0625 -36.046875 C 90.382812 -36.046875 93.066406 -35.085938 95.109375 -33.171875 C 97.160156 -31.253906 98.1875 -28.632812 98.1875 -25.3125 C 98.1875 -17.894531 94.925781 -11.179688 88.40625 -5.171875 C 81.882812 0.828125 73.765625 3.828125 64.046875 3.828125 C 54.328125 3.828125 46.269531 0.441406 39.875 -6.328125 C 33.488281 -13.097656 30.296875 -21.472656 30.296875 -31.453125 L 30.296875 -164.15625 L 13.8125 -164.15625 C 11 -164.15625 8.628906 -165.175781 6.703125 -167.21875 C 4.785156 -169.257812 3.828125 -171.554688 3.828125 -174.109375 C 3.828125 -176.671875 4.785156 -178.972656 6.703125 -181.015625 C 8.628906 -183.066406 11 -184.09375 13.8125 -184.09375 L 23.015625 -184.09375 C 27.097656 -184.09375 29.648438 -184.664062 30.671875 -185.8125 C 31.703125 -186.96875 32.21875 -189.335938 32.21875 -192.921875 L 32.21875 -213.625 C 32.21875 -223.59375 37.332031 -228.578125 47.5625 -228.578125 C 50.625 -228.578125 52.15625 -227.046875 52.15625 -223.984375 L 52.15625 -184.09375 L 69.03125 -184.09375 C 75.9375 -184.09375 79.390625 -180.640625 79.390625 -173.734375 C 79.390625 -171.179688 78.492188 -168.945312 76.703125 -167.03125 C 74.910156 -165.113281 72.351562 -164.15625 69.03125 -164.15625 L 52.15625 -164.15625 L 52.15625 -31.828125 C 52.15625 -19.816406 56.117188 -13.8125 64.046875 -13.8125 C 71.972656 -13.8125 75.9375 -17.515625 75.9375 -24.921875 Z M 75.9375 -24.921875 "/></g></g></g><g fill="#464444" fill-opacity="1"><g transform="translate(186.011598, 321.932457)"><g><path d="M 72.109375 -188.703125 C 94.097656 -188.703125 111.160156 -181.539062 123.296875 -167.21875 C 135.441406 -152.894531 141.515625 -134.613281 141.515625 -112.375 C 141.515625 -77.09375 142.789062 -53.25 145.34375 -40.84375 C 147.90625 -28.445312 152.769531 -19.691406 159.9375 -14.578125 C 164.28125 -12.523438 166.453125 -9.710938 166.453125 -6.140625 C 166.453125 0.503906 163.382812 3.828125 157.25 3.828125 C 151.113281 3.828125 145.296875 0.953125 139.796875 -4.796875 C 134.296875 -10.546875 129.882812 -17.640625 126.5625 -26.078125 C 122.21875 -17.640625 115.25 -10.546875 105.65625 -4.796875 C 96.070312 0.953125 84.632812 3.828125 71.34375 3.828125 C 51.90625 3.828125 36.113281 -2.238281 23.96875 -14.375 C 11.820312 -26.519531 5.75 -41.988281 5.75 -60.78125 C 5.75 -79.582031 12.140625 -95.628906 24.921875 -108.921875 C 37.710938 -122.210938 53.628906 -128.859375 72.671875 -128.859375 C 91.722656 -128.859375 107.640625 -122.597656 120.421875 -110.078125 C 120.421875 -127.972656 116.585938 -142.992188 108.921875 -155.140625 C 101.253906 -167.285156 89.492188 -173.359375 73.640625 -173.359375 C 57.785156 -173.359375 47.8125 -169.007812 43.71875 -160.3125 C 46.019531 -154.945312 47.171875 -150.472656 47.171875 -146.890625 C 47.171875 -143.304688 45.632812 -139.46875 42.5625 -135.375 C 39.5 -131.289062 35.726562 -129.25 31.25 -129.25 C 26.78125 -129.25 23.265625 -131.164062 20.703125 -135 C 18.148438 -138.832031 16.875 -143.304688 16.875 -148.421875 C 16.875 -159.160156 22.175781 -168.554688 32.78125 -176.609375 C 43.394531 -184.671875 56.503906 -188.703125 72.109375 -188.703125 Z M 26.84375 -62.515625 C 26.84375 -48.453125 31.570312 -36.691406 41.03125 -27.234375 C 50.5 -17.773438 61.816406 -13.046875 74.984375 -13.046875 C 88.148438 -13.046875 99.207031 -17.582031 108.15625 -26.65625 C 117.101562 -35.726562 121.578125 -46.785156 121.578125 -59.828125 L 121.578125 -63.28125 C 121.578125 -77.09375 116.972656 -88.472656 107.765625 -97.421875 C 98.566406 -106.367188 87.253906 -110.84375 73.828125 -110.84375 C 60.398438 -110.84375 49.210938 -106.300781 40.265625 -97.21875 C 31.316406 -88.144531 26.84375 -76.578125 26.84375 -62.515625 Z M 26.84375 -62.515625 "/></g></g></g><g fill="#464444" fill-opacity="1"><g transform="translate(352.426302, 321.932457)"><g><path d="M 32.984375 -224.359375 L 20.703125 -224.359375 C 17.640625 -224.359375 15.210938 -225.316406 13.421875 -227.234375 C 11.628906 -229.160156 10.734375 -231.59375 10.734375 -234.53125 C 10.734375 -237.46875 11.628906 -239.832031 13.421875 -241.625 C 15.210938 -243.414062 17.640625 -244.3125 20.703125 -244.3125 L 42.578125 -244.3125 C 46.921875 -244.3125 49.988281 -243.539062 51.78125 -242 C 53.570312 -240.46875 54.46875 -237.660156 54.46875 -233.578125 L 54.46875 -19.9375 L 64.046875 -19.9375 C 67.117188 -19.9375 69.484375 -18.914062 71.140625 -16.875 C 72.804688 -14.832031 73.640625 -12.53125 73.640625 -9.96875 C 73.640625 -3.320312 70.441406 0 64.046875 0 L 23.390625 0 C 20.578125 0 18.273438 -0.957031 16.484375 -2.875 C 14.703125 -4.789062 13.8125 -7.09375 13.8125 -9.78125 C 13.8125 -12.46875 14.703125 -14.832031 16.484375 -16.875 C 18.273438 -18.914062 20.578125 -19.9375 23.390625 -19.9375 L 32.984375 -19.9375 Z M 32.984375 -224.359375 "/></g></g></g><g fill="#464444" fill-opacity="1"><g transform="translate(436.78397, 321.932457)"><g><path d="M 30.6875 -164.53125 L 20.703125 -164.53125 C 17.640625 -164.53125 15.210938 -165.488281 13.421875 -167.40625 C 11.628906 -169.320312 10.734375 -171.5625 10.734375 -174.125 C 10.734375 -180.769531 14.054688 -184.09375 20.703125 -184.09375 L 39.890625 -184.09375 C 47.816406 -184.09375 51.90625 -180.640625 52.15625 -173.734375 L 52.15625 -19.9375 L 61.75 -19.9375 C 64.8125 -19.9375 67.175781 -18.914062 68.84375 -16.875 C 70.507812 -14.832031 71.34375 -12.53125 71.34375 -9.96875 C 71.34375 -3.320312 68.144531 0 61.75 0 L 21.09375 0 C 18.539062 0 16.300781 -0.957031 14.375 -2.875 C 12.457031 -4.789062 11.5 -7.023438 11.5 -9.578125 C 11.5 -12.140625 12.457031 -14.503906 14.375 -16.671875 C 16.300781 -18.847656 18.539062 -19.9375 21.09375 -19.9375 L 30.6875 -20.328125 Z M 36.4375 -243.546875 C 41.550781 -243.546875 45.832031 -241.882812 49.28125 -238.5625 C 52.738281 -235.238281 54.46875 -231.207031 54.46875 -226.46875 C 54.46875 -221.738281 52.738281 -217.710938 49.28125 -214.390625 C 45.832031 -211.066406 41.613281 -209.40625 36.625 -209.40625 C 31.632812 -209.40625 27.414062 -211.066406 23.96875 -214.390625 C 20.519531 -217.710938 18.796875 -221.738281 18.796875 -226.46875 C 18.796875 -231.207031 20.457031 -235.238281 23.78125 -238.5625 C 27.101562 -241.882812 31.320312 -243.546875 36.4375 -243.546875 Z M 36.4375 -243.546875 "/></g></g></g><g fill="#464444" fill-opacity="1"><g transform="translate(518.841009, 321.932457)"><g><path d="M 75.9375 -24.921875 C 75.9375 -28.253906 76.957031 -30.941406 79 -32.984375 C 81.050781 -35.023438 83.738281 -36.046875 87.0625 -36.046875 C 90.382812 -36.046875 93.066406 -35.085938 95.109375 -33.171875 C 97.160156 -31.253906 98.1875 -28.632812 98.1875 -25.3125 C 98.1875 -17.894531 94.925781 -11.179688 88.40625 -5.171875 C 81.882812 0.828125 73.765625 3.828125 64.046875 3.828125 C 54.328125 3.828125 46.269531 0.441406 39.875 -6.328125 C 33.488281 -13.097656 30.296875 -21.472656 30.296875 -31.453125 L 30.296875 -164.15625 L 13.8125 -164.15625 C 11 -164.15625 8.628906 -165.175781 6.703125 -167.21875 C 4.785156 -169.257812 3.828125 -171.554688 3.828125 -174.109375 C 3.828125 -176.671875 4.785156 -178.972656 6.703125 -181.015625 C 8.628906 -183.066406 11 -184.09375 13.8125 -184.09375 L 23.015625 -184.09375 C 27.097656 -184.09375 29.648438 -184.664062 30.671875 -185.8125 C 31.703125 -186.96875 32.21875 -189.335938 32.21875 -192.921875 L 32.21875 -213.625 C 32.21875 -223.59375 37.332031 -228.578125 47.5625 -228.578125 C 50.625 -228.578125 52.15625 -227.046875 52.15625 -223.984375 L 52.15625 -184.09375 L 69.03125 -184.09375 C 75.9375 -184.09375 79.390625 -180.640625 79.390625 -173.734375 C 79.390625 -171.179688 78.492188 -168.945312 76.703125 -167.03125 C 74.910156 -165.113281 72.351562 -164.15625 69.03125 -164.15625 L 52.15625 -164.15625 L 52.15625 -31.828125 C 52.15625 -19.816406 56.117188 -13.8125 64.046875 -13.8125 C 71.972656 -13.8125 75.9375 -17.515625 75.9375 -24.921875 Z M 75.9375 -24.921875 "/></g></g></g><g fill="#464444" fill-opacity="1"><g transform="translate(618.919941, 321.932457)"><g><path d="M 9.96875 -164.15625 C 7.925781 -164.15625 6.070312 -165.238281 4.40625 -167.40625 C 2.75 -169.582031 1.921875 -171.882812 1.921875 -174.3125 C 1.921875 -176.738281 2.75 -178.972656 4.40625 -181.015625 C 6.070312 -183.066406 7.925781 -184.09375 9.96875 -184.09375 L 55.609375 -184.09375 C 57.660156 -184.09375 59.515625 -183.066406 61.171875 -181.015625 C 62.835938 -178.972656 63.671875 -176.738281 63.671875 -174.3125 C 63.671875 -171.882812 62.835938 -169.582031 61.171875 -167.40625 C 59.515625 -165.238281 57.660156 -164.15625 55.609375 -164.15625 L 44.875 -163.765625 L 96.265625 -44.875 L 148.8125 -164.15625 L 139.609375 -164.15625 C 137.304688 -164.15625 135.257812 -165.238281 133.46875 -167.40625 C 131.675781 -169.582031 130.78125 -171.882812 130.78125 -174.3125 C 130.78125 -176.738281 131.609375 -178.972656 133.265625 -181.015625 C 134.929688 -183.066406 137.046875 -184.09375 139.609375 -184.09375 L 177.953125 -184.09375 C 180.515625 -184.09375 182.625 -183.066406 184.28125 -181.015625 C 185.945312 -178.972656 186.78125 -176.738281 186.78125 -174.3125 C 186.78125 -171.882812 185.882812 -169.582031 184.09375 -167.40625 C 182.300781 -165.238281 180.253906 -164.15625 177.953125 -164.15625 L 168.75 -164.15625 L 95.890625 -0.765625 C 85.148438 24.035156 74.15625 39.117188 62.90625 44.484375 C 57.28125 47.296875 50.242188 48.703125 41.796875 48.703125 C 33.359375 48.703125 26.390625 46.082031 20.890625 40.84375 C 15.398438 35.601562 12.65625 30.554688 12.65625 25.703125 C 12.65625 15.984375 16.875 11.125 25.3125 11.125 C 31.707031 11.125 36.757812 13.613281 40.46875 18.59375 C 44.175781 23.582031 46.285156 28.765625 46.796875 34.140625 C 57.535156 33.367188 67.890625 21.476562 77.859375 -1.53125 L 85.140625 -19.5625 L 23.390625 -164.15625 Z M 9.96875 -164.15625 "/></g></g></g></g></g></svg>