<svg xmlns="http://www.w3.org/2000/svg" xmlns:xlink="http://www.w3.org/1999/xlink" width="2000" zoomAndPan="magnify" viewBox="0 0 1500 1499.999933" height="2000" preserveAspectRatio="xMidYMid meet" version="1.0"><defs><g/><clipPath id="c074fc9571"><path d="M 368.105469 295.058594 L 1131.605469 295.058594 L 1131.605469 871.058594 L 368.105469 871.058594 Z M 368.105469 295.058594 " clip-rule="nonzero"/></clipPath><clipPath id="f5bae58074"><rect x="0" width="789" y="0" height="212"/></clipPath><clipPath id="2c508e2df5"><rect x="0" width="342" y="0" height="93"/></clipPath></defs><g clip-path="url(#c074fc9571)"><path fill="#0f2a4e" d="M 1130.488281 380.460938 C 1125.46875 347.425781 1109.292969 319.476562 1086.121094 303.742188 C 1074.753906 296.027344 1063.765625 293.46875 1054.347656 296.269531 C 1045.542969 298.894531 1039.296875 305.859375 1034.246094 311.453125 L 999.980469 349.542969 C 998.546875 349.644531 997.082031 349.816406 995.578125 350.054688 C 988.617188 351.144531 982.066406 353.433594 975.75 355.652344 L 913.742188 377.355469 L 913.742188 377.457031 C 912.851562 377.425781 911.898438 377.390625 910.976562 377.390625 C 904.253906 377.390625 897.871094 378.414062 892.992188 380.289062 C 885.484375 383.15625 883.367188 387.285156 882.855469 390.1875 L 845.210938 404.488281 L 791.1875 394.453125 L 774.464844 401.996094 L 774.464844 419.777344 C 769.859375 421.074219 766.035156 423.257812 762.691406 426.429688 L 762.28125 426.808594 L 761.972656 427.285156 C 761.019531 428.785156 760.132812 430.289062 759.3125 431.859375 C 759.039062 431.859375 758.730469 431.890625 758.457031 431.960938 L 755.25 432.710938 C 756 419.46875 750.542969 405.921875 740.542969 397.117188 C 732.113281 389.675781 720.78125 385.855469 709.621094 386.261719 C 708.972656 383.191406 708.15625 379.847656 705.628906 377.96875 C 703.820312 376.605469 701.429688 376.296875 699.144531 376.195312 C 695.628906 376.058594 692.148438 376.332031 688.703125 377.015625 C 685.152344 370.632812 680.101562 365.785156 674.332031 363.328125 C 668.226562 360.734375 661.773438 360.804688 655.734375 361.109375 C 642.5625 361.792969 629.285156 363.296875 616.28125 365.546875 C 611.777344 362.476562 606.828125 360.324219 601.742188 359.335938 L 600.617188 359.132812 L 599.628906 359.300781 C 593.828125 360.019531 399.640625 383.394531 397.660156 383.636719 C 397.523438 383.636719 397.386719 383.667969 397.25 383.703125 C 396.226562 383.566406 395.132812 383.773438 394.179688 384.351562 C 376.398438 395.476562 366.089844 416.570312 368.445312 436.941406 C 370.800781 457.316406 385.679688 475.609375 405.476562 482.539062 C 405.882812 482.675781 406.328125 482.742188 406.738281 482.777344 C 407.316406 482.949219 407.898438 483.050781 408.511719 483.050781 C 408.851562 483.050781 409.160156 483.050781 409.5 482.980469 L 573.453125 457.214844 C 572.835938 465.097656 572.941406 472.980469 574.851562 480.59375 C 577.34375 490.558594 583.585938 500.113281 592.53125 504.753906 L 571.027344 509.429688 C 566.285156 510.453125 562.191406 513.492188 559.800781 517.722656 C 557.410156 521.957031 556.96875 527.039062 558.570312 531.613281 L 563.726562 546.390625 C 566.148438 553.320312 572.632812 557.824219 579.765625 557.824219 C 580.6875 557.824219 581.609375 557.753906 582.5625 557.585938 L 615.53125 552.160156 C 618.976562 551.578125 621.300781 548.335938 620.753906 544.890625 C 620.171875 541.441406 616.929688 539.121094 613.484375 539.667969 L 580.515625 545.09375 C 578.402344 545.433594 576.386719 544.242188 575.671875 542.226562 L 570.515625 527.449219 C 569.972656 525.847656 570.484375 524.515625 570.824219 523.867188 C 571.199219 523.21875 572.019531 522.09375 573.691406 521.75 L 590.855469 518.03125 C 593.074219 524.277344 597.683594 529.703125 603.621094 532.671875 C 610.855469 536.253906 619.761719 536.085938 627.441406 532.980469 C 627.542969 533.285156 627.613281 533.558594 627.714844 533.867188 C 630.136719 541.238281 634.4375 543.832031 637.578125 544.683594 C 638.703125 544.992188 639.796875 545.09375 640.820312 545.09375 C 643.074219 545.09375 645.050781 544.546875 646.519531 544.136719 C 661.671875 539.871094 675.492188 535.777344 688.804688 531.613281 L 690.167969 531.171875 L 691.226562 530.179688 C 694.128906 527.484375 695.835938 523.628906 696.175781 519.363281 C 699.792969 518.203125 703.445312 517.042969 707.164062 515.847656 C 707.710938 519.804688 711.976562 522.570312 715.9375 522.230469 C 719.894531 521.921875 723.375 519.054688 725.285156 515.574219 C 727.367188 511.785156 727.878906 507.109375 726.652344 502.945312 C 726.652344 502.945312 747.980469 491.511719 748.21875 492.671875 C 753.136719 496.15625 757.332031 500.660156 760.574219 505.640625 C 765.25 507.417969 770.4375 507.691406 775.285156 506.496094 L 775.558594 506.496094 C 775.660156 508.339844 775.796875 510.148438 775.933594 511.957031 L 763.238281 516.222656 C 758.902344 517.691406 753.476562 519.53125 749.414062 523.832031 C 746.242188 527.175781 744.261719 531.785156 743.648438 537.109375 C 730.746094 538.574219 718.359375 544.34375 709.074219 553.457031 C 701.226562 555.707031 694.027344 560.144531 688.632812 566.21875 C 673.683594 564.546875 658.292969 566.96875 644.777344 573.179688 C 619.867188 564.34375 591.984375 562.703125 565.976562 568.640625 L 566.25 569.835938 C 545.707031 564.480469 526.289062 560.042969 507.449219 556.355469 L 505.265625 555.945312 L 503.148438 556.59375 C 502.296875 556.835938 501.441406 557.105469 500.554688 557.347656 C 491.375 560.042969 481 563.113281 471.582031 569.289062 C 470.148438 570.246094 468.746094 571.234375 467.449219 572.292969 C 460.453125 576.527344 455.234375 583.523438 452.296875 591.199219 C 449.976562 597.277344 449.023438 603.761719 448.917969 610.246094 C 448.78125 611.542969 448.714844 612.839844 448.714844 614.167969 L 448.714844 764.910156 C 448.714844 778.253906 456.53125 790.542969 468.644531 796.171875 L 613.109375 863.300781 C 624.269531 868.488281 636.214844 871.1875 647.644531 871.1875 C 651.125 871.1875 654.574219 870.945312 657.917969 870.433594 C 672.421875 868.214844 686.449219 861.699219 697.472656 851.972656 C 699.757812 850.332031 702.421875 847.058594 707.8125 839.992188 C 711.636719 835.011719 715.183594 830.128906 715.355469 829.925781 L 717.199219 827.398438 L 716.175781 799.859375 C 721.601562 799.277344 727.128906 796.785156 731.875 792.691406 C 735.082031 789.894531 737.710938 786.652344 739.960938 783.304688 C 749.140625 780.882812 757.945312 777.230469 766.136719 772.386719 C 785.726562 779.722656 805.863281 786.035156 826.101562 791.222656 L 827.808594 791.667969 L 958.753906 743.207031 L 976.980469 743 L 977.867188 742.695312 C 978.039062 742.625 995.578125 736.515625 1012.984375 730.339844 C 1049.605469 717.371094 1049.945312 716.960938 1051.242188 715.527344 L 1052.128906 714.539062 L 1052.46875 713.242188 C 1064.246094 669.488281 1064.277344 623.484375 1064.3125 579.015625 C 1064.3125 571.917969 1064.3125 564.582031 1064.382812 557.378906 C 1064.484375 544.683594 1064.585938 530.25 1056.941406 518.304688 C 1050.148438 507.691406 1037.796875 500.25 1020.152344 496.222656 C 1016.089844 495.300781 1011.925781 494.515625 1007.933594 493.800781 C 1004.757812 493.21875 1001.621094 492.640625 998.546875 491.992188 C 991.757812 476.121094 982.816406 461.140625 972.03125 447.691406 L 1015.988281 433.050781 C 1020.320312 436.703125 1026.15625 438.855469 1032.265625 438.855469 C 1033.050781 438.855469 1033.835938 438.820312 1034.621094 438.75 C 1040.015625 438.238281 1044.757812 436.328125 1048.820312 433.835938 C 1050.902344 439.023438 1054.109375 443.769531 1058.238281 447.625 C 1065.371094 454.28125 1074.925781 458.035156 1084.652344 458.035156 C 1085.027344 458.035156 1085.402344 458.035156 1085.777344 458.035156 C 1101.988281 457.554688 1118.0625 445.917969 1125.742188 429.09375 C 1131.785156 415.921875 1133.351562 399.574219 1130.453125 380.496094 Z M 688.734375 418.207031 C 690.714844 414.519531 692.011719 410.527344 692.660156 406.398438 C 695.152344 405.820312 697.644531 405.273438 700.132812 404.691406 C 702.796875 404.078125 705.59375 403.394531 707.574219 401.550781 C 709.210938 400.015625 710.132812 397.832031 710.441406 395.613281 C 719.109375 395.410156 727.847656 398.414062 734.363281 404.144531 C 742.929688 411.722656 747.300781 423.703125 745.660156 435.03125 L 695.867188 446.875 C 691.5 441.480469 685.972656 437.113281 679.726562 434.109375 C 679.792969 432.4375 679.828125 430.765625 679.863281 429.09375 C 683.515625 426.089844 686.550781 422.40625 688.804688 418.242188 Z M 656.347656 373.804688 C 661.125 373.566406 665.699219 373.464844 669.351562 375.035156 C 672.832031 376.503906 675.972656 379.8125 678.222656 384.316406 C 679.488281 386.84375 680.410156 389.609375 681.226562 392.472656 C 670.171875 394.179688 641.777344 399.199219 641.777344 399.199219 C 641.433594 403.667969 640.238281 408.070312 638.226562 412.0625 C 638.738281 408.992188 638.535156 405.820312 637.679688 402.816406 C 636.078125 393.191406 632.972656 384.828125 628.328125 377.9375 C 628.023438 377.492188 627.714844 377.082031 627.40625 376.640625 C 636.996094 375.273438 646.691406 374.320312 656.347656 373.804688 Z M 667.167969 430.664062 C 666.859375 430.765625 666.550781 430.902344 666.28125 431.039062 C 656.859375 431.039062 637.476562 433.324219 637.476562 433.324219 L 611.8125 426.875 L 612.699219 423.222656 C 630.480469 419.09375 649.351562 418.785156 667.132812 423.019531 C 667.199219 425.542969 667.199219 428.105469 667.132812 430.628906 Z M 434.6875 428.207031 C 434.484375 437.933594 431.515625 447.625 426.191406 455.78125 C 428.648438 442.503906 427.964844 428.273438 421.890625 416.191406 C 417.316406 407.148438 409.332031 399.574219 399.945312 396.125 C 564.339844 376.332031 594.542969 372.679688 600.207031 371.996094 C 606.964844 373.566406 613.347656 378.242188 617.816406 384.933594 C 620.003906 388.207031 621.777344 391.960938 623.109375 396.160156 C 593.179688 401.621094 434.652344 428.171875 434.652344 428.171875 Z M 683.207031 520.113281 C 676.414062 522.226562 669.488281 524.308594 662.285156 526.425781 C 662.355469 525.710938 662.355469 524.957031 662.527344 524.277344 C 663.277344 521.035156 666.894531 519.464844 670.066406 518.371094 C 672.902344 517.382812 675.902344 516.425781 678.871094 516.972656 C 680.648438 517.3125 682.320312 518.441406 683.273438 519.941406 C 683.273438 519.976562 683.242188 520.042969 683.207031 520.078125 Z M 650.238281 480.695312 C 652.183594 489.671875 647.988281 499.636719 640.207031 504.480469 C 643.585938 497.417969 645.972656 489.671875 645.496094 481.855469 C 645.019531 474.039062 641.230469 466.15625 634.507812 462.128906 C 630.34375 459.636719 625.460938 458.785156 620.683594 457.929688 C 610.652344 456.191406 600.582031 454.449219 589.867188 452.335938 C 590.070312 452.027344 590.242188 451.6875 590.34375 451.3125 C 592.050781 449.46875 594.269531 448.035156 596.625 447.179688 C 601.300781 445.441406 606.488281 445.507812 611.46875 445.851562 C 622.734375 446.601562 634.0625 448.546875 644.300781 453.289062 C 657.40625 451.378906 670.511719 449.503906 683.617188 447.589844 C 685.1875 448.921875 686.6875 450.390625 688.019531 451.992188 C 687.984375 452.472656 688.019531 452.949219 688.121094 453.425781 C 688.53125 455.167969 689.863281 456.429688 691.5 456.839844 C 694.058594 461.140625 695.730469 465.984375 696.414062 470.933594 L 650.238281 480.625 Z M 751.191406 459.46875 L 705.5625 469.058594 C 704.84375 464.246094 703.34375 459.535156 701.160156 455.167969 L 754.738281 442.4375 C 752.863281 447.964844 751.703125 453.664062 751.191406 459.46875 Z M 774.464844 450.730469 C 767.707031 457.488281 762.996094 466.226562 760.917969 475.574219 C 758.699219 460.96875 761.566406 445.542969 769.480469 432.847656 C 770.984375 431.515625 772.585938 430.457031 774.464844 429.671875 L 774.464844 450.765625 Z M 988.550781 547.996094 L 989.878906 548.335938 L 991.210938 548.027344 C 1007.796875 544.378906 1024.144531 539.394531 1039.980469 533.25 L 1040.390625 539.085938 C 1025.304688 545.8125 1009.433594 550.757812 993.15625 553.726562 L 987.902344 554.683594 L 988.582031 560.007812 C 990.902344 577.960938 989.949219 596.59375 985.886719 615.023438 C 986.023438 612.90625 986.195312 610.789062 986.296875 608.675781 C 987.046875 596.183594 987.320312 582.839844 984.113281 569.699219 C 981.792969 560.246094 977.796875 551.851562 972.441406 545.09375 C 977.96875 545.640625 983.363281 546.597656 988.515625 547.960938 Z M 910.976562 388.6875 C 918.792969 388.6875 924.320312 390.324219 926.847656 391.691406 C 924.355469 393.054688 918.792969 394.691406 910.976562 394.691406 C 903.160156 394.691406 897.632812 393.054688 895.105469 391.691406 C 897.597656 390.324219 903.160156 388.6875 910.976562 388.6875 Z M 887.804688 400.359375 C 889.132812 401.3125 890.839844 402.234375 892.957031 403.054688 C 897.871094 404.929688 904.253906 405.953125 910.941406 405.953125 C 917.632812 405.953125 924.046875 404.929688 928.925781 403.054688 C 929.507812 402.847656 930.019531 402.609375 930.53125 402.371094 C 935.378906 407.492188 938.140625 414.65625 937.972656 421.722656 L 866.507812 408.445312 L 887.734375 400.390625 Z M 785.761719 409.265625 L 792.621094 406.160156 L 944.796875 434.453125 L 944.96875 436.671875 C 942.304688 437.863281 939.609375 439.023438 936.949219 440.183594 L 933.5 441.652344 L 933.5 544.546875 L 926.640625 544.308594 L 926.300781 444.554688 L 785.726562 413.464844 L 785.726562 409.265625 Z M 944.113281 401.757812 C 945.957031 401.929688 947.628906 402.371094 948.890625 403.328125 C 950.632812 404.589844 951.964844 406.980469 952.988281 410.664062 C 954.25 415.101562 954.695312 419.742188 954.421875 424.351562 C 952.679688 424.144531 950.597656 423.871094 949.234375 423.734375 C 949.78125 416.089844 947.9375 408.378906 944.113281 401.792969 Z M 744.570312 676.929688 C 743.988281 673.277344 743.273438 669.660156 742.382812 666.078125 L 764.464844 659.628906 C 765.589844 663.140625 766.582031 666.65625 767.402344 670.242188 L 744.570312 676.894531 Z M 769.242188 679.457031 C 769.824219 682.902344 770.265625 686.382812 770.609375 689.898438 L 746.242188 696.996094 C 746.242188 693.449219 746.035156 689.863281 745.730469 686.316406 Z M 739.789062 657.171875 C 739.3125 655.667969 738.800781 654.167969 738.253906 652.664062 C 737.574219 650.789062 736.820312 648.945312 736.035156 647.101562 L 756.957031 640.992188 C 758.015625 643.175781 759.039062 645.394531 759.996094 647.648438 C 760.4375 648.707031 760.882812 649.796875 761.324219 650.890625 L 739.824219 657.171875 Z M 732.042969 638.570312 C 730.304688 635.15625 728.425781 631.847656 726.378906 628.605469 L 745.492188 623.042969 C 745.761719 622.972656 746.035156 622.871094 746.273438 622.734375 C 748.492188 625.941406 750.542969 629.21875 752.488281 632.597656 Z M 720.882812 620.515625 C 718.5625 617.34375 716.070312 614.238281 713.476562 611.269531 L 732.554688 605.707031 C 735.320312 608.640625 737.949219 611.675781 740.4375 614.816406 Z M 706.277344 603.65625 C 703.921875 601.335938 701.464844 599.117188 698.90625 596.96875 L 717.234375 591.644531 C 719.894531 593.761719 722.453125 595.945312 724.980469 598.230469 L 706.277344 603.691406 Z M 704.878906 584.410156 L 707.164062 584.886719 L 689.828125 589.9375 C 686.347656 587.480469 682.761719 585.195312 679.078125 583.078125 C 687.78125 582.191406 696.414062 582.636719 704.878906 584.410156 Z M 644.128906 832.042969 C 644.128906 837.808594 641.332031 842.859375 636.484375 845.964844 C 631.640625 849.070312 625.871094 849.445312 620.652344 847.023438 C 620.652344 847.023438 476.1875 779.894531 476.1875 779.894531 C 470.386719 777.199219 466.632812 771.328125 466.632812 764.910156 L 466.632812 614.167969 C 466.632812 609.800781 468.304688 605.707031 471.308594 602.667969 C 472.636719 602.597656 473.933594 602.839844 475.164062 603.382812 C 475.574219 603.589844 475.984375 603.792969 476.359375 604.066406 L 477.6875 749.382812 C 477.792969 760.234375 482.226562 770.679688 489.871094 778.324219 C 492.328125 777.914062 494.820312 777.46875 497.277344 777.0625 L 495.164062 775.117188 C 487.925781 768.527344 483.730469 759.109375 483.660156 749.347656 L 482.332031 606.21875 C 484.855469 607.207031 487.246094 608.605469 489.359375 610.3125 L 490.625 749.417969 C 490.726562 759.382812 494.445312 769.007812 501 776.445312 C 503.386719 776.039062 505.777344 775.628906 508.164062 775.21875 L 508.097656 775.148438 C 500.863281 768.5625 496.664062 759.144531 496.597656 749.382812 L 495.332031 613.757812 C 498.300781 615.089844 500.964844 617.136719 503.082031 619.628906 L 504.242188 745.082031 C 504.34375 755.867188 508.675781 766.207031 516.253906 773.820312 C 518.710938 773.410156 521.167969 772.964844 523.660156 772.554688 L 521.75 770.816406 C 514.511719 764.230469 510.316406 754.808594 510.246094 745.050781 L 509.121094 622.292969 C 510.65625 622.667969 512.125 623.316406 513.457031 624.132812 C 514.171875 624.816406 517.722656 746.414062 517.722656 746.414062 C 520.109375 756.34375 526.152344 765.320312 534.410156 771.257812 C 534.683594 771.667969 630.617188 814.226562 644.128906 820.234375 L 644.128906 832.074219 Z M 644.128906 794.328125 L 534.136719 744.433594 L 532.292969 634.953125 L 544.101562 639.59375 L 545.46875 739.417969 L 644.128906 784.910156 Z M 644.128906 754.265625 L 584.613281 726.003906 L 584.679688 639.730469 L 593.996094 643.382812 L 594.269531 719.523438 C 594.269531 719.523438 638.808594 742.488281 644.128906 744.296875 L 644.128906 754.296875 Z M 670.988281 662.835938 C 670.988281 662.835938 669.660156 836.851562 670.066406 835.898438 C 666.519531 840.8125 662.320312 845.214844 657.609375 849.003906 C 660.476562 843.917969 662.046875 838.117188 662.046875 832.042969 L 662.046875 656.078125 C 662.046875 640.824219 651.808594 627.238281 637.203125 622.972656 L 492.738281 581.066406 C 491.511719 580.691406 490.25 580.417969 488.984375 580.210938 C 494.308594 577.855469 500.007812 576.183594 505.605469 574.511719 C 505.777344 574.476562 505.945312 574.410156 506.117188 574.375 C 547.140625 582.5 591.0625 594.304688 644.128906 611.507812 C 655.835938 615.296875 665.425781 618.640625 673.414062 624.441406 C 683.921875 632.050781 691.054688 644.441406 692.832031 657.339844 Z M 712.660156 705.324219 L 711.191406 665.429688 C 711.875 643.859375 701.464844 622.597656 683.992188 609.902344 C 673.070312 601.984375 660.101562 597.789062 649.695312 594.410156 C 645.394531 593.007812 641.160156 591.679688 636.964844 590.347656 C 644.675781 588.402344 652.457031 587.039062 660.273438 586.355469 C 691.023438 599.152344 716.140625 625.292969 727.640625 656.554688 C 732.625 670.070312 735.011719 684.472656 734.945312 698.910156 C 727.503906 701.058594 720.097656 703.175781 712.660156 705.324219 Z M 764.773438 743.207031 C 755.148438 746.484375 745.21875 749.484375 735.082031 752.148438 C 736.242188 749.484375 737.300781 746.789062 738.289062 744.09375 L 766.921875 737.097656 C 766.207031 739.144531 765.488281 741.191406 764.773438 743.207031 Z M 769.140625 727.234375 C 768.664062 727.199219 768.152344 727.234375 767.640625 727.335938 L 741.53125 733.683594 C 742.214844 731.125 742.828125 728.566406 743.375 726.003906 L 770.234375 719.453125 C 769.925781 722.046875 769.550781 724.640625 769.105469 727.199219 Z M 771.050781 709.691406 L 745.082031 716.039062 C 745.492188 712.933594 745.796875 709.828125 745.96875 706.722656 C 746.207031 706.722656 746.445312 706.65625 746.683594 706.585938 L 771.15625 699.453125 C 771.257812 702.867188 771.222656 706.3125 771.050781 709.726562 Z M 781.496094 685.53125 C 779.824219 671.058594 776.136719 656.792969 770.402344 643.246094 C 759.003906 616.351562 740.03125 593.214844 716.070312 576.730469 C 718.121094 576.457031 720.203125 576.152344 722.25 576.082031 C 725.695312 575.980469 729.039062 576.558594 732.25 577.617188 C 751.222656 586.933594 767.914062 604.648438 778.492188 627.308594 C 786.445312 644.371094 790.777344 662.835938 793.441406 681.433594 C 788.902344 682.9375 784.636719 684.371094 781.496094 685.53125 Z M 817.226562 673.925781 C 814.222656 674.882812 809.515625 676.316406 804.359375 677.953125 C 801.5625 659.082031 796.957031 640.207031 788.730469 622.53125 C 781.9375 607.957031 772.554688 594.820312 761.597656 584.445312 C 757.980469 581.03125 754.226562 577.960938 750.335938 575.195312 C 764.910156 578.777344 778.664062 586.59375 789.71875 597.753906 C 804.496094 612.703125 814.054688 633.144531 816.679688 655.394531 C 817.398438 661.503906 817.566406 667.679688 817.261719 673.894531 Z M 833.0625 691.195312 C 837.089844 669.796875 835.792969 647.308594 828.863281 626.726562 C 822.277344 607.171875 810.605469 589.289062 795.589844 575.023438 C 810.503906 579.871094 823.710938 589.972656 832.074219 603.246094 C 823.882812 576.765625 810.367188 551.917969 792.621094 530.625 C 792.417969 530.488281 792.449219 530.417969 792.484375 530.386719 C 786.035156 527.996094 779.34375 526.1875 772.585938 525.027344 L 785.796875 520.554688 L 799.652344 524.070312 L 827.089844 564.582031 C 827.976562 565.914062 829.445312 566.628906 830.945312 566.628906 C 831.832031 566.628906 832.753906 566.355469 833.539062 565.84375 C 835.65625 564.410156 836.234375 561.507812 834.769531 559.394531 L 832.960938 556.699219 L 874.765625 545.195312 C 894.355469 553.011719 915.277344 557.039062 936.367188 557.039062 C 939.847656 557.039062 943.296875 556.9375 946.777344 556.699219 C 954.078125 567.789062 959.710938 580.144531 963.328125 592.90625 L 838.351562 627.480469 L 840.058594 633.042969 C 846.988281 655.429688 844.1875 680.753906 833.128906 701.46875 C 833.199219 698.054688 833.164062 694.640625 833.0625 691.230469 Z M 897.9375 743.820312 L 882.242188 748.15625 C 880.296875 748.699219 878.28125 747.539062 877.734375 745.59375 C 877.191406 743.648438 878.351562 741.636719 880.296875 741.089844 L 895.992188 736.757812 C 897.9375 736.210938 899.953125 737.371094 900.5 739.316406 C 900.601562 739.65625 900.636719 739.964844 900.636719 740.304688 C 900.636719 741.910156 899.578125 743.375 897.9375 743.820312 Z M 938.824219 730.679688 L 923.125 735.015625 C 921.179688 735.5625 919.167969 734.402344 918.621094 732.457031 C 918.074219 730.511719 919.234375 728.496094 921.179688 727.949219 L 936.878906 723.617188 C 938.824219 723.070312 940.839844 724.230469 941.382812 726.175781 C 941.488281 726.519531 941.519531 726.824219 941.519531 727.167969 C 941.519531 728.769531 940.460938 730.238281 938.824219 730.679688 Z M 958.550781 699.726562 C 958.550781 699.726562 848.25 737.164062 848.796875 737.132812 C 852.308594 748.941406 844.972656 761.261719 844.257812 773.511719 L 843.402344 773.820312 C 843.574219 758.53125 840.773438 743.242188 835.246094 729.007812 C 846.882812 726.652344 946.675781 694.503906 958.480469 690.71875 C 958.722656 694.199219 959.027344 697.78125 959.300781 700.136719 L 958.585938 699.726562 Z M 895.003906 643.484375 C 896.0625 651.675781 896.402344 660.003906 895.039062 668.125 C 893.671875 676.246094 890.601562 684.234375 885.347656 690.582031 C 888.792969 675.769531 889.269531 660.277344 886.8125 645.292969 C 886.472656 645.121094 864.253906 651.367188 864.253906 651.367188 C 864.734375 660.414062 864.734375 669.523438 863.09375 678.398438 C 861.457031 687.269531 858.042969 695.972656 852.277344 702.96875 C 858.898438 681.023438 859.136719 657.238281 852.957031 635.15625 L 963.054688 604.714844 C 966.398438 609.730469 968.789062 615.398438 970.085938 621.265625 C 957.96875 623.757812 895.003906 643.484375 895.003906 643.484375 Z M 997.867188 391.28125 L 997.96875 395.921875 C 998.070312 401.246094 996.910156 406.707031 994.65625 411.722656 C 994.28125 408.34375 993.703125 404.929688 992.710938 401.621094 C 989.980469 392.578125 984.554688 385.648438 977.457031 382.097656 C 967.046875 376.878906 955.207031 379.949219 946.707031 385 C 942.441406 382.203125 937.1875 380.90625 932.066406 381.722656 C 931.726562 381.554688 931.382812 381.382812 931.042969 381.210938 L 978.824219 364.488281 C 984.761719 362.40625 990.902344 360.257812 997.011719 359.300781 C 1003.53125 358.277344 1009.265625 358.757812 1014.007812 360.703125 C 1022.234375 364.078125 1028.71875 372.75 1030.902344 383.328125 C 1030.9375 383.566406 1031.003906 383.839844 1031.039062 384.078125 L 997.867188 391.347656 Z M 1051.003906 372.78125 L 1050.695312 376.878906 C 1050.523438 379.371094 1050.117188 383.5 1049.433594 388.207031 C 1048.476562 384.078125 1047.113281 380.050781 1045.304688 376.230469 C 1039.980469 364.898438 1030.96875 355.273438 1020.082031 349.03125 C 1026.839844 345.753906 1034.179688 344.558594 1040.933594 345.855469 C 1051.480469 347.871094 1061.308594 355.890625 1067.828125 367.835938 C 1068.511719 369.097656 1069.160156 370.394531 1069.773438 371.726562 L 1050.96875 372.78125 Z M 1079.703125 371.179688 C 1078.613281 368.550781 1077.382812 365.957031 1075.984375 363.398438 C 1068.101562 348.996094 1055.984375 339.304688 1042.675781 336.742188 C 1036.257812 335.515625 1029.433594 335.992188 1022.882812 338.007812 L 1041.140625 317.699219 C 1046.53125 311.695312 1051.140625 306.949219 1056.976562 305.210938 C 1065.371094 302.683594 1074.621094 307.222656 1080.863281 311.453125 C 1098.851562 323.671875 1112.226562 344.21875 1118.609375 368.960938 L 1079.671875 371.179688 Z M 1079.703125 371.179688 " fill-opacity="1" fill-rule="nonzero"/></g><path fill="#0f2a4e" d="M 867.328125 609.835938 C 867.328125 610.464844 867.265625 611.089844 867.140625 611.707031 C 867.019531 612.324219 866.835938 612.921875 866.597656 613.503906 C 866.355469 614.085938 866.058594 614.640625 865.710938 615.164062 C 865.359375 615.6875 864.964844 616.171875 864.519531 616.617188 C 864.074219 617.0625 863.589844 617.457031 863.066406 617.808594 C 862.542969 618.15625 861.988281 618.453125 861.40625 618.695312 C 860.824219 618.9375 860.226562 619.117188 859.609375 619.242188 C 858.988281 619.363281 858.367188 619.425781 857.738281 619.425781 C 857.105469 619.425781 856.484375 619.363281 855.867188 619.242188 C 855.25 619.117188 854.648438 618.933594 854.066406 618.695312 C 853.484375 618.453125 852.933594 618.15625 852.410156 617.808594 C 851.886719 617.457031 851.402344 617.0625 850.957031 616.617188 C 850.511719 616.171875 850.113281 615.6875 849.761719 615.164062 C 849.414062 614.640625 849.117188 614.085938 848.875 613.503906 C 848.636719 612.921875 848.453125 612.324219 848.332031 611.707031 C 848.207031 611.089844 848.148438 610.464844 848.148438 609.835938 C 848.148438 609.203125 848.207031 608.582031 848.332031 607.964844 C 848.453125 607.347656 848.636719 606.746094 848.875 606.164062 C 849.117188 605.582031 849.414062 605.03125 849.761719 604.507812 C 850.113281 603.984375 850.511719 603.5 850.957031 603.054688 C 851.402344 602.609375 851.886719 602.210938 852.410156 601.859375 C 852.933594 601.511719 853.484375 601.214844 854.066406 600.976562 C 854.648438 600.734375 855.25 600.550781 855.867188 600.429688 C 856.484375 600.304688 857.105469 600.246094 857.738281 600.246094 C 858.367188 600.246094 858.988281 600.304688 859.609375 600.429688 C 860.226562 600.550781 860.824219 600.734375 861.40625 600.976562 C 861.988281 601.214844 862.542969 601.511719 863.066406 601.859375 C 863.589844 602.210938 864.074219 602.609375 864.519531 603.054688 C 864.964844 603.5 865.359375 603.984375 865.710938 604.507812 C 866.058594 605.03125 866.355469 605.582031 866.597656 606.164062 C 866.835938 606.746094 867.019531 607.347656 867.140625 607.964844 C 867.265625 608.582031 867.328125 609.203125 867.328125 609.835938 Z M 867.328125 609.835938 " fill-opacity="1" fill-rule="nonzero"/><path fill="#0f2a4e" d="M 889.304688 603.246094 C 889.304688 603.878906 889.242188 604.5 889.121094 605.117188 C 888.996094 605.738281 888.816406 606.335938 888.574219 606.917969 C 888.335938 607.5 888.039062 608.050781 887.6875 608.574219 C 887.339844 609.097656 886.941406 609.582031 886.496094 610.027344 C 886.050781 610.472656 885.566406 610.871094 885.042969 611.222656 C 884.519531 611.570312 883.964844 611.867188 883.386719 612.109375 C 882.804688 612.347656 882.203125 612.53125 881.585938 612.652344 C 880.96875 612.777344 880.34375 612.835938 879.714844 612.839844 C 879.085938 612.835938 878.460938 612.777344 877.84375 612.652344 C 877.226562 612.53125 876.625 612.347656 876.046875 612.109375 C 875.464844 611.867188 874.910156 611.570312 874.386719 611.222656 C 873.863281 610.871094 873.378906 610.472656 872.933594 610.027344 C 872.488281 609.582031 872.089844 609.097656 871.742188 608.574219 C 871.390625 608.050781 871.097656 607.5 870.855469 606.917969 C 870.613281 606.335938 870.433594 605.738281 870.308594 605.117188 C 870.1875 604.5 870.125 603.878906 870.125 603.246094 C 870.125 602.617188 870.1875 601.996094 870.308594 601.378906 C 870.433594 600.757812 870.613281 600.160156 870.855469 599.578125 C 871.097656 598.996094 871.390625 598.445312 871.742188 597.921875 C 872.089844 597.398438 872.488281 596.914062 872.933594 596.46875 C 873.378906 596.023438 873.863281 595.625 874.386719 595.273438 C 874.910156 594.925781 875.464844 594.628906 876.046875 594.386719 C 876.628906 594.148438 877.226562 593.964844 877.84375 593.84375 C 878.460938 593.71875 879.085938 593.65625 879.714844 593.65625 C 880.34375 593.65625 880.96875 593.71875 881.585938 593.84375 C 882.203125 593.964844 882.804688 594.148438 883.386719 594.386719 C 883.964844 594.628906 884.519531 594.925781 885.042969 595.273438 C 885.566406 595.625 886.050781 596.023438 886.496094 596.46875 C 886.941406 596.914062 887.339844 597.398438 887.6875 597.921875 C 888.039062 598.445312 888.335938 598.996094 888.574219 599.578125 C 888.816406 600.160156 888.996094 600.757812 889.121094 601.378906 C 889.242188 601.996094 889.304688 602.617188 889.304688 603.246094 Z M 889.304688 603.246094 " fill-opacity="1" fill-rule="nonzero"/><path fill="#0f2a4e" d="M 912.785156 597.34375 C 912.785156 597.972656 912.722656 598.597656 912.601562 599.214844 C 912.476562 599.832031 912.296875 600.433594 912.054688 601.015625 C 911.8125 601.59375 911.519531 602.148438 911.167969 602.671875 C 910.820312 603.195312 910.421875 603.679688 909.976562 604.125 C 909.53125 604.570312 909.046875 604.96875 908.523438 605.316406 C 908 605.667969 907.445312 605.960938 906.863281 606.203125 C 906.28125 606.445312 905.683594 606.625 905.066406 606.75 C 904.449219 606.871094 903.824219 606.933594 903.195312 606.933594 C 902.566406 606.933594 901.941406 606.871094 901.324219 606.75 C 900.707031 606.625 900.105469 606.445312 899.523438 606.203125 C 898.945312 605.960938 898.390625 605.667969 897.867188 605.316406 C 897.34375 604.96875 896.859375 604.570312 896.414062 604.125 C 895.96875 603.679688 895.570312 603.195312 895.222656 602.671875 C 894.871094 602.148438 894.574219 601.59375 894.335938 601.015625 C 894.09375 600.433594 893.914062 599.832031 893.789062 599.214844 C 893.667969 598.597656 893.605469 597.972656 893.605469 597.34375 C 893.605469 596.714844 893.667969 596.089844 893.789062 595.472656 C 893.914062 594.855469 894.09375 594.253906 894.335938 593.675781 C 894.574219 593.09375 894.871094 592.539062 895.222656 592.015625 C 895.570312 591.492188 895.96875 591.007812 896.414062 590.5625 C 896.859375 590.117188 897.34375 589.71875 897.867188 589.371094 C 898.390625 589.019531 898.941406 588.726562 899.523438 588.484375 C 900.105469 588.242188 900.707031 588.0625 901.324219 587.9375 C 901.941406 587.816406 902.566406 587.753906 903.195312 587.753906 C 903.824219 587.753906 904.449219 587.816406 905.066406 587.9375 C 905.683594 588.0625 906.28125 588.242188 906.863281 588.484375 C 907.445312 588.726562 908 589.019531 908.523438 589.371094 C 909.046875 589.71875 909.53125 590.117188 909.976562 590.5625 C 910.421875 591.007812 910.820312 591.492188 911.167969 592.015625 C 911.519531 592.539062 911.8125 593.09375 912.054688 593.675781 C 912.296875 594.253906 912.476562 594.855469 912.601562 595.472656 C 912.722656 596.089844 912.785156 596.714844 912.785156 597.34375 Z M 912.785156 597.34375 " fill-opacity="1" fill-rule="nonzero"/><path fill="#0f2a4e" d="M 867.976562 581.578125 C 867.976562 582.207031 867.914062 582.832031 867.789062 583.449219 C 867.667969 584.066406 867.484375 584.664062 867.246094 585.246094 C 867.003906 585.828125 866.707031 586.382812 866.359375 586.90625 C 866.007812 587.429688 865.613281 587.914062 865.167969 588.359375 C 864.722656 588.804688 864.238281 589.199219 863.714844 589.550781 C 863.191406 589.898438 862.636719 590.195312 862.054688 590.4375 C 861.472656 590.675781 860.875 590.859375 860.257812 590.984375 C 859.636719 591.105469 859.015625 591.167969 858.386719 591.167969 C 857.753906 591.167969 857.132812 591.105469 856.515625 590.984375 C 855.898438 590.859375 855.296875 590.675781 854.714844 590.4375 C 854.132812 590.195312 853.582031 589.898438 853.058594 589.550781 C 852.535156 589.199219 852.050781 588.804688 851.605469 588.359375 C 851.160156 587.914062 850.761719 587.429688 850.410156 586.90625 C 850.0625 586.382812 849.765625 585.828125 849.523438 585.246094 C 849.285156 584.664062 849.101562 584.066406 848.980469 583.449219 C 848.855469 582.832031 848.796875 582.207031 848.796875 581.578125 C 848.796875 580.945312 848.855469 580.324219 848.980469 579.707031 C 849.101562 579.089844 849.285156 578.488281 849.523438 577.90625 C 849.765625 577.324219 850.0625 576.773438 850.410156 576.25 C 850.761719 575.726562 851.160156 575.242188 851.605469 574.796875 C 852.050781 574.351562 852.535156 573.953125 853.058594 573.601562 C 853.582031 573.253906 854.132812 572.957031 854.714844 572.71875 C 855.296875 572.476562 855.898438 572.292969 856.515625 572.171875 C 857.132812 572.046875 857.753906 571.988281 858.386719 571.988281 C 859.015625 571.988281 859.636719 572.046875 860.257812 572.171875 C 860.875 572.292969 861.472656 572.476562 862.054688 572.71875 C 862.636719 572.957031 863.191406 573.253906 863.714844 573.601562 C 864.238281 573.953125 864.722656 574.351562 865.167969 574.796875 C 865.613281 575.242188 866.007812 575.726562 866.359375 576.25 C 866.707031 576.773438 867.003906 577.324219 867.246094 577.90625 C 867.484375 578.488281 867.667969 579.089844 867.789062 579.707031 C 867.914062 580.324219 867.976562 580.945312 867.976562 581.578125 Z M 867.976562 581.578125 " fill-opacity="1" fill-rule="nonzero"/><path fill="#0f2a4e" d="M 891.457031 575.671875 C 891.453125 576.300781 891.394531 576.925781 891.269531 577.542969 C 891.148438 578.160156 890.964844 578.761719 890.726562 579.34375 C 890.484375 579.925781 890.1875 580.476562 889.839844 581 C 889.488281 581.523438 889.089844 582.007812 888.644531 582.453125 C 888.199219 582.898438 887.714844 583.296875 887.191406 583.644531 C 886.667969 583.996094 886.117188 584.292969 885.535156 584.53125 C 884.953125 584.773438 884.355469 584.957031 883.734375 585.078125 C 883.117188 585.203125 882.496094 585.261719 881.863281 585.261719 C 881.234375 585.261719 880.613281 585.203125 879.996094 585.078125 C 879.375 584.957031 878.777344 584.773438 878.195312 584.53125 C 877.613281 584.292969 877.0625 583.996094 876.539062 583.644531 C 876.011719 583.296875 875.527344 582.898438 875.085938 582.453125 C 874.640625 582.007812 874.242188 581.523438 873.890625 581 C 873.542969 580.476562 873.246094 579.925781 873.003906 579.34375 C 872.765625 578.761719 872.582031 578.160156 872.460938 577.542969 C 872.335938 576.925781 872.273438 576.300781 872.273438 575.671875 C 872.273438 575.042969 872.335938 574.417969 872.460938 573.800781 C 872.582031 573.183594 872.765625 572.585938 873.003906 572.003906 C 873.246094 571.421875 873.542969 570.867188 873.890625 570.34375 C 874.242188 569.820312 874.640625 569.335938 875.085938 568.890625 C 875.527344 568.445312 876.011719 568.046875 876.539062 567.699219 C 877.0625 567.347656 877.613281 567.054688 878.195312 566.8125 C 878.777344 566.570312 879.375 566.390625 879.996094 566.265625 C 880.613281 566.144531 881.234375 566.082031 881.863281 566.082031 C 882.496094 566.082031 883.117188 566.144531 883.734375 566.265625 C 884.355469 566.390625 884.953125 566.570312 885.535156 566.8125 C 886.117188 567.054688 886.667969 567.347656 887.191406 567.699219 C 887.714844 568.046875 888.199219 568.445312 888.644531 568.890625 C 889.089844 569.335938 889.488281 569.820312 889.839844 570.34375 C 890.1875 570.867188 890.484375 571.421875 890.726562 572.003906 C 890.964844 572.585938 891.148438 573.183594 891.269531 573.800781 C 891.394531 574.417969 891.453125 575.042969 891.457031 575.671875 Z M 891.457031 575.671875 " fill-opacity="1" fill-rule="nonzero"/><g transform="matrix(1, 0, 0, 1, 371, 930)"><g clip-path="url(#f5bae58074)"><g fill="#0f2a4e" fill-opacity="1"><g transform="translate(2.304122, 158.883469)"><g><path d="M 5.484375 -112.265625 C 5.484375 -124.222656 8.332031 -133.398438 14.03125 -139.796875 C 19.726562 -146.203125 28.273438 -149.40625 39.671875 -149.40625 C 51.066406 -149.40625 59.613281 -146.203125 65.3125 -139.796875 C 71.007812 -133.398438 73.859375 -124.222656 73.859375 -112.265625 L 73.859375 -107.625 L 51.90625 -107.625 L 51.90625 -113.734375 C 51.90625 -119.078125 50.882812 -122.835938 48.84375 -125.015625 C 46.8125 -127.203125 43.960938 -128.296875 40.296875 -128.296875 C 36.640625 -128.296875 33.789062 -127.203125 31.75 -125.015625 C 29.71875 -122.835938 28.703125 -119.078125 28.703125 -113.734375 C 28.703125 -108.671875 29.828125 -104.203125 32.078125 -100.328125 C 34.328125 -96.460938 37.140625 -92.804688 40.515625 -89.359375 C 43.890625 -85.910156 47.507812 -82.460938 51.375 -79.015625 C 55.25 -75.578125 58.875 -71.816406 62.25 -67.734375 C 65.625 -63.648438 68.4375 -59.003906 70.6875 -53.796875 C 72.9375 -48.597656 74.0625 -42.484375 74.0625 -35.453125 C 74.0625 -23.492188 71.140625 -14.3125 65.296875 -7.90625 C 59.460938 -1.507812 50.847656 1.6875 39.453125 1.6875 C 28.066406 1.6875 19.453125 -1.507812 13.609375 -7.90625 C 7.773438 -14.3125 4.859375 -23.492188 4.859375 -35.453125 L 4.859375 -44.53125 L 26.796875 -44.53125 L 26.796875 -33.96875 C 26.796875 -28.625 27.882812 -24.894531 30.0625 -22.78125 C 32.25 -20.675781 35.171875 -19.625 38.828125 -19.625 C 42.484375 -19.625 45.398438 -20.675781 47.578125 -22.78125 C 49.765625 -24.894531 50.859375 -28.625 50.859375 -33.96875 C 50.859375 -39.03125 49.734375 -43.492188 47.484375 -47.359375 C 45.234375 -51.234375 42.414062 -54.894531 39.03125 -58.34375 C 35.65625 -61.789062 32.035156 -65.238281 28.171875 -68.6875 C 24.304688 -72.132812 20.679688 -75.894531 17.296875 -79.96875 C 13.921875 -84.050781 11.109375 -88.691406 8.859375 -93.890625 C 6.609375 -99.097656 5.484375 -105.222656 5.484375 -112.265625 Z M 5.484375 -112.265625 "/></g></g></g><g fill="#0f2a4e" fill-opacity="1"><g transform="translate(112.87627, 158.883469)"><g><path d="M 83.5625 0 L 60.140625 0 L 56.125 -26.796875 L 27.640625 -26.796875 L 23.640625 0 L 2.328125 0 L 25.953125 -147.71875 L 59.921875 -147.71875 Z M 30.59375 -46.84375 L 52.96875 -46.84375 L 41.78125 -121.546875 Z M 30.59375 -46.84375 "/></g></g></g><g fill="#0f2a4e" fill-opacity="1"><g transform="translate(230.411972, 158.883469)"><g><path d="M 8.4375 -147.71875 L 31.65625 -147.71875 L 31.65625 -21.109375 L 69.84375 -21.109375 L 69.84375 0 L 8.4375 0 Z M 8.4375 -147.71875 "/></g></g></g><g fill="#0f2a4e" fill-opacity="1"><g transform="translate(333.598604, 158.883469)"><g><path d="M 31.65625 -82.078125 L 61.609375 -82.078125 L 61.609375 -60.984375 L 31.65625 -60.984375 L 31.65625 0 L 8.4375 0 L 8.4375 -147.71875 L 69.84375 -147.71875 L 69.84375 -126.609375 L 31.65625 -126.609375 Z M 31.65625 -82.078125 "/></g></g></g><g fill="#0f2a4e" fill-opacity="1"><g transform="translate(437.840325, 158.883469)"><g><path d="M 29.75 -33.96875 C 29.75 -28.625 30.835938 -24.859375 33.015625 -22.671875 C 35.203125 -20.492188 38.125 -19.40625 41.78125 -19.40625 C 45.4375 -19.40625 48.351562 -20.492188 50.53125 -22.671875 C 52.71875 -24.859375 53.8125 -28.625 53.8125 -33.96875 L 53.8125 -113.734375 C 53.8125 -119.078125 52.71875 -122.835938 50.53125 -125.015625 C 48.351562 -127.203125 45.4375 -128.296875 41.78125 -128.296875 C 38.125 -128.296875 35.203125 -127.203125 33.015625 -125.015625 C 30.835938 -122.835938 29.75 -119.078125 29.75 -113.734375 Z M 6.546875 -112.265625 C 6.546875 -124.222656 9.566406 -133.398438 15.609375 -139.796875 C 21.660156 -146.203125 30.382812 -149.40625 41.78125 -149.40625 C 53.175781 -149.40625 61.894531 -146.203125 67.9375 -139.796875 C 73.988281 -133.398438 77.015625 -124.222656 77.015625 -112.265625 L 77.015625 -35.453125 C 77.015625 -23.492188 73.988281 -14.3125 67.9375 -7.90625 C 61.894531 -1.507812 53.175781 1.6875 41.78125 1.6875 C 30.382812 1.6875 21.660156 -1.507812 15.609375 -7.90625 C 9.566406 -14.3125 6.546875 -23.492188 6.546875 -35.453125 Z M 6.546875 -112.265625 "/></g></g></g><g fill="#0f2a4e" fill-opacity="1"><g transform="translate(553.054845, 158.883469)"><g><path d="M 56.96875 0 C 56.6875 -0.988281 56.40625 -1.90625 56.125 -2.75 C 55.84375 -3.59375 55.597656 -4.644531 55.390625 -5.90625 C 55.179688 -7.175781 55.039062 -8.796875 54.96875 -10.765625 C 54.894531 -12.734375 54.859375 -15.191406 54.859375 -18.140625 L 54.859375 -41.359375 C 54.859375 -48.253906 53.660156 -53.109375 51.265625 -55.921875 C 48.878906 -58.734375 45.015625 -60.140625 39.671875 -60.140625 L 31.65625 -60.140625 L 31.65625 0 L 8.4375 0 L 8.4375 -147.71875 L 43.46875 -147.71875 C 55.5625 -147.71875 64.316406 -144.898438 69.734375 -139.265625 C 75.148438 -133.640625 77.859375 -125.128906 77.859375 -113.734375 L 77.859375 -102.125 C 77.859375 -86.9375 72.796875 -76.953125 62.671875 -72.171875 C 68.578125 -69.773438 72.617188 -65.867188 74.796875 -60.453125 C 76.984375 -55.035156 78.078125 -48.457031 78.078125 -40.71875 L 78.078125 -17.9375 C 78.078125 -14.28125 78.21875 -11.078125 78.5 -8.328125 C 78.78125 -5.585938 79.484375 -2.8125 80.609375 0 Z M 31.65625 -126.609375 L 31.65625 -81.234375 L 40.71875 -81.234375 C 45.082031 -81.234375 48.492188 -82.359375 50.953125 -84.609375 C 53.421875 -86.867188 54.65625 -90.953125 54.65625 -96.859375 L 54.65625 -111.421875 C 54.65625 -116.765625 53.703125 -120.628906 51.796875 -123.015625 C 49.898438 -125.410156 46.914062 -126.609375 42.84375 -126.609375 Z M 31.65625 -126.609375 "/></g></g></g><g fill="#0f2a4e" fill-opacity="1"><g transform="translate(669.535459, 158.883469)"><g><path d="M 8.4375 -147.71875 L 45.15625 -147.71875 C 56.832031 -147.71875 65.519531 -144.617188 71.21875 -138.421875 C 76.914062 -132.234375 79.765625 -123.160156 79.765625 -111.203125 L 79.765625 -36.5 C 79.765625 -24.539062 76.914062 -15.46875 71.21875 -9.28125 C 65.519531 -3.09375 56.832031 0 45.15625 0 L 8.4375 0 Z M 31.65625 -126.609375 L 31.65625 -21.109375 L 44.734375 -21.109375 C 48.390625 -21.109375 51.269531 -22.160156 53.375 -24.265625 C 55.488281 -26.378906 56.546875 -30.109375 56.546875 -35.453125 L 56.546875 -112.265625 C 56.546875 -117.609375 55.488281 -121.332031 53.375 -123.4375 C 51.269531 -125.550781 48.390625 -126.609375 44.734375 -126.609375 Z M 31.65625 -126.609375 "/></g></g></g></g></g><g transform="matrix(1, 0, 0, 1, 584, 1116)"><g clip-path="url(#2c508e2df5)"><g fill="#0f2a4e" fill-opacity="1"><g transform="translate(4.16635, 71.357388)"><g><path d="M 30.46875 -13.046875 C 30.46875 -13.941406 30.3125 -14.78125 30 -15.5625 C 29.6875 -16.34375 29.160156 -17.066406 28.421875 -17.734375 C 27.679688 -18.410156 26.707031 -19.03125 25.5 -19.59375 C 24.300781 -20.15625 22.804688 -20.675781 21.015625 -21.15625 C 18.835938 -21.75 16.757812 -22.492188 14.78125 -23.390625 C 12.800781 -24.285156 11.054688 -25.363281 9.546875 -26.625 C 8.035156 -27.882812 6.828125 -29.347656 5.921875 -31.015625 C 5.015625 -32.679688 4.5625 -34.601562 4.5625 -36.78125 C 4.5625 -38.894531 5.007812 -40.804688 5.90625 -42.515625 C 6.800781 -44.234375 8.035156 -45.695312 9.609375 -46.90625 C 11.191406 -48.125 13.054688 -49.0625 15.203125 -49.71875 C 17.359375 -50.375 19.695312 -50.703125 22.21875 -50.703125 C 24.832031 -50.703125 27.21875 -50.320312 29.375 -49.5625 C 31.539062 -48.8125 33.398438 -47.753906 34.953125 -46.390625 C 36.515625 -45.023438 37.726562 -43.398438 38.59375 -41.515625 C 39.46875 -39.640625 39.90625 -37.582031 39.90625 -35.34375 L 30.5 -35.34375 C 30.457031 -36.46875 30.253906 -37.5 29.890625 -38.4375 C 29.535156 -39.375 29.007812 -40.179688 28.3125 -40.859375 C 27.613281 -41.535156 26.742188 -42.0625 25.703125 -42.4375 C 24.660156 -42.8125 23.441406 -43 22.046875 -43 C 20.765625 -43 19.625 -42.84375 18.625 -42.53125 C 17.632812 -42.226562 16.796875 -41.796875 16.109375 -41.234375 C 15.421875 -40.671875 14.898438 -40.003906 14.546875 -39.234375 C 14.191406 -38.472656 14.015625 -37.644531 14.015625 -36.75 C 14.015625 -35.8125 14.25 -34.960938 14.71875 -34.203125 C 15.1875 -33.453125 15.863281 -32.769531 16.75 -32.15625 C 17.644531 -31.550781 18.726562 -31 20 -30.5 C 21.269531 -30 22.707031 -29.53125 24.3125 -29.09375 C 26.601562 -28.425781 28.707031 -27.613281 30.625 -26.65625 C 32.550781 -25.695312 34.207031 -24.554688 35.59375 -23.234375 C 36.976562 -21.921875 38.054688 -20.421875 38.828125 -18.734375 C 39.597656 -17.054688 39.984375 -15.1875 39.984375 -13.125 C 39.984375 -10.925781 39.539062 -8.972656 38.65625 -7.265625 C 37.769531 -5.554688 36.550781 -4.113281 35 -2.9375 C 33.445312 -1.757812 31.59375 -0.863281 29.4375 -0.25 C 27.28125 0.351562 24.929688 0.65625 22.390625 0.65625 C 20.816406 0.65625 19.242188 0.507812 17.671875 0.21875 C 16.097656 -0.0625 14.597656 -0.5 13.171875 -1.09375 C 11.742188 -1.6875 10.410156 -2.429688 9.171875 -3.328125 C 7.929688 -4.222656 6.859375 -5.265625 5.953125 -6.453125 C 5.054688 -7.648438 4.347656 -9.003906 3.828125 -10.515625 C 3.316406 -12.023438 3.0625 -13.695312 3.0625 -15.53125 L 12.53125 -15.53125 C 12.582031 -14.019531 12.847656 -12.722656 13.328125 -11.640625 C 13.804688 -10.566406 14.472656 -9.6875 15.328125 -9 C 16.191406 -8.3125 17.222656 -7.804688 18.421875 -7.484375 C 19.628906 -7.160156 20.953125 -7 22.390625 -7 C 23.671875 -7 24.8125 -7.148438 25.8125 -7.453125 C 26.8125 -7.753906 27.648438 -8.164062 28.328125 -8.6875 C 29.015625 -9.21875 29.539062 -9.851562 29.90625 -10.59375 C 30.28125 -11.34375 30.46875 -12.160156 30.46875 -13.046875 Z M 30.46875 -13.046875 "/></g></g></g><g fill="#0f2a4e" fill-opacity="1"><g transform="translate(60.444056, 71.357388)"><g><path d="M 41.25 -42.140625 L 25.828125 -42.140625 L 25.828125 0 L 16.140625 0 L 16.140625 -42.140625 L 0.921875 -42.140625 L 0.921875 -50.015625 L 41.25 -50.015625 Z M 41.25 -42.140625 "/></g></g></g><g fill="#0f2a4e" fill-opacity="1"><g transform="translate(116.721761, 71.357388)"><g><path d="M 37.8125 -50.015625 L 37.84375 -16.859375 C 37.84375 -14.066406 37.457031 -11.582031 36.6875 -9.40625 C 35.925781 -7.226562 34.816406 -5.390625 33.359375 -3.890625 C 31.910156 -2.398438 30.140625 -1.265625 28.046875 -0.484375 C 25.953125 0.296875 23.566406 0.6875 20.890625 0.6875 C 18.367188 0.6875 16.09375 0.296875 14.0625 -0.484375 C 12.039062 -1.265625 10.304688 -2.394531 8.859375 -3.875 C 7.421875 -5.363281 6.304688 -7.203125 5.515625 -9.390625 C 4.722656 -11.578125 4.328125 -14.066406 4.328125 -16.859375 L 4.359375 -50.015625 L 14.015625 -50.015625 L 14.046875 -16.859375 C 14.066406 -13.628906 14.65625 -11.191406 15.8125 -9.546875 C 16.96875 -7.898438 18.660156 -7.078125 20.890625 -7.078125 C 23.242188 -7.078125 25.046875 -7.898438 26.296875 -9.546875 C 27.546875 -11.191406 28.179688 -13.628906 28.203125 -16.859375 L 28.234375 -50.015625 Z M 37.8125 -50.015625 "/></g></g></g><g fill="#0f2a4e" fill-opacity="1"><g transform="translate(172.999466, 71.357388)"><g><path d="M 4.296875 0 L 4.296875 -50.015625 L 17.25 -50.015625 C 20.5625 -50.015625 23.5625 -49.445312 26.25 -48.3125 C 28.945312 -47.175781 31.25 -45.59375 33.15625 -43.5625 C 35.070312 -41.539062 36.550781 -39.117188 37.59375 -36.296875 C 38.632812 -33.484375 39.15625 -30.394531 39.15625 -27.03125 L 39.15625 -22.90625 C 39.15625 -19.539062 38.632812 -16.457031 37.59375 -13.65625 C 36.550781 -10.851562 35.085938 -8.4375 33.203125 -6.40625 C 31.328125 -4.375 29.070312 -2.796875 26.4375 -1.671875 C 23.8125 -0.554688 20.90625 0 17.71875 0 Z M 14.015625 -42.171875 L 14.015625 -7.765625 L 17.71875 -7.765625 C 19.53125 -7.765625 21.148438 -8.109375 22.578125 -8.796875 C 24.015625 -9.484375 25.226562 -10.476562 26.21875 -11.78125 C 27.21875 -13.082031 27.976562 -14.664062 28.5 -16.53125 C 29.03125 -18.40625 29.296875 -20.53125 29.296875 -22.90625 L 29.296875 -27.09375 C 29.296875 -29.34375 29.035156 -31.390625 28.515625 -33.234375 C 28.003906 -35.078125 27.238281 -36.660156 26.21875 -37.984375 C 25.207031 -39.316406 23.953125 -40.347656 22.453125 -41.078125 C 20.953125 -41.804688 19.21875 -42.171875 17.25 -42.171875 Z M 14.015625 -42.171875 "/></g></g></g><g fill="#0f2a4e" fill-opacity="1"><g transform="translate(229.277171, 71.357388)"><g><path d="M 6.625 -50.015625 L 35.546875 -50.015625 L 35.546875 -42.21875 L 25.796875 -42.21875 L 25.796875 -7.765625 L 35.546875 -7.765625 L 35.546875 0 L 6.625 0 L 6.625 -7.765625 L 16.140625 -7.765625 L 16.140625 -42.21875 L 6.625 -42.21875 Z M 6.625 -50.015625 "/></g></g></g><g fill="#0f2a4e" fill-opacity="1"><g transform="translate(285.554877, 71.357388)"><g><path d="M 39.390625 -21.328125 C 39.390625 -18.117188 38.96875 -15.164062 38.125 -12.46875 C 37.28125 -9.769531 36.054688 -7.445312 34.453125 -5.5 C 32.847656 -3.550781 30.894531 -2.03125 28.59375 -0.9375 C 26.289062 0.144531 23.695312 0.6875 20.8125 0.6875 C 17.925781 0.6875 15.359375 0.144531 13.109375 -0.9375 C 10.867188 -2.03125 8.984375 -3.554688 7.453125 -5.515625 C 5.921875 -7.472656 4.753906 -9.796875 3.953125 -12.484375 C 3.148438 -15.171875 2.75 -18.117188 2.75 -21.328125 L 2.75 -28.609375 C 2.75 -31.816406 3.148438 -34.769531 3.953125 -37.46875 C 4.753906 -40.175781 5.921875 -42.507812 7.453125 -44.46875 C 8.984375 -46.425781 10.863281 -47.953125 13.09375 -49.046875 C 15.332031 -50.148438 17.894531 -50.703125 20.78125 -50.703125 C 23.6875 -50.703125 26.289062 -50.148438 28.59375 -49.046875 C 30.894531 -47.953125 32.847656 -46.425781 34.453125 -44.46875 C 36.054688 -42.507812 37.28125 -40.175781 38.125 -37.46875 C 38.96875 -34.769531 39.390625 -31.816406 39.390625 -28.609375 Z M 29.609375 -28.6875 C 29.609375 -30.71875 29.441406 -32.59375 29.109375 -34.3125 C 28.773438 -36.03125 28.253906 -37.503906 27.546875 -38.734375 C 26.835938 -39.972656 25.925781 -40.941406 24.8125 -41.640625 C 23.707031 -42.335938 22.363281 -42.6875 20.78125 -42.6875 C 19.21875 -42.6875 17.910156 -42.335938 16.859375 -41.640625 C 15.804688 -40.941406 14.957031 -39.972656 14.3125 -38.734375 C 13.675781 -37.503906 13.21875 -36.03125 12.9375 -34.3125 C 12.664062 -32.59375 12.53125 -30.71875 12.53125 -28.6875 L 12.53125 -21.328125 C 12.53125 -19.316406 12.664062 -17.453125 12.9375 -15.734375 C 13.21875 -14.015625 13.675781 -12.523438 14.3125 -11.265625 C 14.957031 -10.003906 15.804688 -9.019531 16.859375 -8.3125 C 17.910156 -7.601562 19.226562 -7.25 20.8125 -7.25 C 22.375 -7.25 23.707031 -7.601562 24.8125 -8.3125 C 25.925781 -9.019531 26.832031 -10 27.53125 -11.25 C 28.226562 -12.5 28.75 -13.976562 29.09375 -15.6875 C 29.4375 -17.40625 29.609375 -19.285156 29.609375 -21.328125 Z M 29.609375 -28.6875 "/></g></g></g></g></g></svg>